<svg width="604" height="544" viewBox="0 0 604 544" fill="none" xmlns="http://www.w3.org/2000/svg">
<mask id="mask0_1_2512" style="mask-type:alpha" maskUnits="userSpaceOnUse" x="0" y="0" width="604" height="544">
<rect width="604" height="544" rx="4" fill="#2F2F2F"/>
</mask>
<g mask="url(#mask0_1_2512)">
<g opacity="0.6" filter="url(#filter0_f_1_2512)">
<ellipse cx="302" cy="272.5" rx="190" ry="176.5" fill="#4F4FFF"/>
</g>
</g>
<g clip-path="url(#clip0_1_2512)">
<path d="M117.467 427.41L109.678 417.853C107.33 415.322 106.028 411.999 106.03 408.55V131.751C106.03 128.112 107.478 124.621 110.054 122.048C112.63 119.475 116.125 118.029 119.768 118.029H476.624C478.604 118.03 480.561 118.46 482.358 119.289C484.156 120.118 485.752 121.327 487.037 122.832L495.005 132.615" fill="black"/>
<path d="M116.67 428.055L108.881 418.505C106.379 415.793 104.993 412.238 105 408.55V131.751C105.006 127.84 106.563 124.092 109.331 121.327C112.1 118.561 115.853 117.005 119.768 117H476.624C478.751 116.999 480.853 117.458 482.785 118.345C484.718 119.232 486.436 120.526 487.82 122.139L495.809 131.936L494.209 133.239L486.241 123.456C485.049 122.075 483.573 120.968 481.913 120.209C480.254 119.45 478.45 119.057 476.624 119.058H119.768C116.399 119.062 113.169 120.4 110.787 122.78C108.404 125.159 107.064 128.386 107.061 131.751V408.55C107.06 411.742 108.265 414.816 110.433 417.16L118.271 426.765L116.67 428.055Z" fill="#9079A7"/>
<path d="M121.104 117.35L119.506 118.65L125.942 126.545L127.54 125.246L121.104 117.35Z" fill="#9079A7"/>
<path d="M106.743 132.958L105.145 134.258L112.012 142.683L113.61 141.383L106.743 132.958Z" fill="#9079A7"/>
<path d="M483.232 125.933H126.685C119.098 125.933 112.947 132.076 112.947 139.654V417.249C112.947 424.827 119.098 430.971 126.685 430.971H483.232C490.819 430.971 496.97 424.827 496.97 417.249V139.654C496.97 132.076 490.819 125.933 483.232 125.933Z" fill="black"/>
<path d="M483.232 432H126.685C122.77 431.995 119.017 430.439 116.248 427.674C113.48 424.909 111.922 421.16 111.917 417.249V139.654C111.921 135.743 113.478 131.994 116.246 129.228C119.015 126.463 122.769 124.907 126.685 124.904H483.232C487.148 124.907 490.902 126.463 493.671 129.228C496.439 131.994 497.996 135.743 498 139.654V417.249C497.996 421.16 496.439 424.91 493.671 427.676C490.902 430.441 487.148 431.996 483.232 432V432ZM126.685 126.962C123.316 126.966 120.086 128.304 117.703 130.683C115.321 133.063 113.981 136.289 113.978 139.654V417.249C113.981 420.614 115.321 423.841 117.703 426.22C120.086 428.6 123.316 429.938 126.685 429.942H483.232C486.601 429.938 489.831 428.6 492.213 426.22C494.596 423.841 495.936 420.614 495.939 417.249V139.654C495.936 136.289 494.596 133.063 492.213 130.683C489.831 128.304 486.601 126.966 483.232 126.962H126.685Z" fill="#9079A7"/>
<path d="M142.181 155.386C139.962 155.418 137.821 154.568 136.228 153.025C134.635 151.481 133.72 149.37 133.684 147.154C133.72 144.937 134.635 142.825 136.228 141.282C137.821 139.739 139.962 138.889 142.181 138.921C144.4 138.889 146.541 139.739 148.134 141.282C149.727 142.825 150.642 144.937 150.678 147.154C150.642 149.37 149.727 151.481 148.134 153.025C146.541 154.568 144.4 155.418 142.181 155.386V155.386ZM142.181 140.979C140.508 140.946 138.89 141.577 137.683 142.735C136.476 143.893 135.779 145.482 135.745 147.154C135.779 148.825 136.476 150.414 137.683 151.572C138.89 152.729 140.508 153.361 142.181 153.328C143.854 153.361 145.472 152.729 146.679 151.572C147.886 150.414 148.583 148.825 148.617 147.154C148.579 145.485 147.88 143.899 146.674 142.744C145.467 141.589 143.852 140.959 142.181 140.993V140.979Z" fill="#9079A7"/>
<path d="M172.053 155.386C169.834 155.418 167.694 154.568 166.101 153.025C164.508 151.481 163.593 149.37 163.557 147.154C163.593 144.937 164.508 142.825 166.101 141.282C167.694 139.739 169.834 138.889 172.053 138.921C174.273 138.889 176.413 139.739 178.006 141.282C179.599 142.825 180.514 144.937 180.55 147.154C180.514 149.37 179.599 151.481 178.006 153.025C176.413 154.568 174.273 155.418 172.053 155.386V155.386ZM172.053 140.979C170.38 140.946 168.763 141.577 167.556 142.735C166.349 143.893 165.652 145.482 165.617 147.154C165.652 148.825 166.349 150.414 167.556 151.572C168.763 152.729 170.38 153.361 172.053 153.328C173.727 153.361 175.344 152.729 176.551 151.572C177.758 150.414 178.455 148.825 178.49 147.154C178.452 145.485 177.753 143.899 176.546 142.744C175.34 141.589 173.724 140.959 172.053 140.993V140.979Z" fill="#9079A7"/>
<path d="M201.926 155.386C199.707 155.418 197.566 154.568 195.973 153.025C194.38 151.481 193.465 149.37 193.429 147.154C193.465 144.937 194.38 142.825 195.973 141.282C197.566 139.739 199.707 138.889 201.926 138.921C204.145 138.889 206.286 139.739 207.879 141.282C209.472 142.825 210.387 144.937 210.423 147.154C210.387 149.37 209.472 151.481 207.879 153.025C206.286 154.568 204.145 155.418 201.926 155.386V155.386ZM201.926 140.979C200.253 140.946 198.635 141.577 197.428 142.735C196.221 143.893 195.524 145.482 195.49 147.154C195.524 148.825 196.221 150.414 197.428 151.572C198.635 152.729 200.253 153.361 201.926 153.328C203.599 153.361 205.217 152.729 206.424 151.572C207.631 150.414 208.328 148.825 208.362 147.154C208.324 145.485 207.626 143.899 206.419 142.744C205.213 141.589 203.597 140.959 201.926 140.993V140.979Z" fill="#9079A7"/>
<path d="M496.97 165.705H112.947V167.763H496.97V165.705Z" fill="#9079A7"/>
<path d="M282.614 408.598C282.614 405.388 280.009 402.787 276.796 402.787C273.583 402.787 270.978 405.388 270.978 408.598C270.978 411.807 273.583 414.409 276.796 414.409C280.009 414.409 282.614 411.807 282.614 408.598Z" fill="#4C30FF"/>
<path d="M296.915 408.598C296.915 405.388 294.31 402.787 291.097 402.787C287.884 402.787 285.279 405.388 285.279 408.598C285.279 411.807 287.884 414.409 291.097 414.409C294.31 414.409 296.915 411.807 296.915 408.598Z" fill="#4C30FF"/>
<path d="M311.216 408.598C311.216 405.388 308.611 402.787 305.398 402.787C302.185 402.787 299.58 405.388 299.58 408.598C299.58 411.807 302.185 414.409 305.398 414.409C308.611 414.409 311.216 411.807 311.216 408.598Z" fill="#4C30FF"/>
<path d="M325.517 408.598C325.517 405.388 322.912 402.787 319.699 402.787C316.486 402.787 313.881 405.388 313.881 408.598C313.881 411.807 316.486 414.409 319.699 414.409C322.912 414.409 325.517 411.807 325.517 408.598Z" fill="#4C30FF"/>
<path d="M339.818 408.598C339.818 405.388 337.213 402.787 334 402.787C330.787 402.787 328.182 405.388 328.182 408.598C328.182 411.807 330.787 414.409 334 414.409C337.213 414.409 339.818 411.807 339.818 408.598Z" fill="#4C30FF"/>
<path d="M343.822 403.692V413.496L349.517 408.598L343.822 403.692Z" fill="black"/>
<path d="M343.163 414.999V402.224L350.595 408.625L343.163 414.999ZM344.537 405.195V412.001L348.493 408.57L344.537 405.195Z" fill="#4C30FF"/>
<path d="M266.466 413.496V403.692L260.771 408.598L266.466 413.496Z" fill="black"/>
<path d="M267.152 414.999L259.72 408.598L267.152 402.197V414.999ZM261.822 408.598L265.779 412.028V405.222L261.822 408.598Z" fill="#4C30FF"/>
<path d="M249.081 281.515H182.336C179.301 281.515 176.841 283.972 176.841 287.004V376.482C176.841 379.514 179.301 381.971 182.336 381.971H249.081C252.115 381.971 254.576 379.514 254.576 376.482V287.004C254.576 283.972 252.115 281.515 249.081 281.515Z" fill="black"/>
<path d="M249.06 382.664H182.315C180.676 382.664 179.104 382.013 177.944 380.855C176.785 379.697 176.134 378.127 176.134 376.489V287.011C176.134 285.373 176.785 283.802 177.944 282.644C179.104 281.486 180.676 280.836 182.315 280.836H249.06C250.699 280.836 252.272 281.486 253.431 282.644C254.591 283.802 255.242 285.373 255.242 287.011V376.489C255.242 378.127 254.591 379.697 253.431 380.855C252.272 382.013 250.699 382.664 249.06 382.664V382.664ZM182.315 282.208C181.04 282.208 179.817 282.714 178.916 283.615C178.014 284.515 177.507 285.737 177.507 287.011V376.489C177.507 377.763 178.014 378.985 178.916 379.885C179.817 380.786 181.04 381.292 182.315 381.292H249.06C250.335 381.292 251.558 380.786 252.46 379.885C253.362 378.985 253.868 377.763 253.868 376.489V287.011C253.868 285.737 253.362 284.515 252.46 283.615C251.558 282.714 250.335 282.208 249.06 282.208H182.315Z" fill="#4C30FF"/>
<path d="M220.225 351.763H188.786C187.709 351.763 186.835 352.635 186.835 353.711C186.835 354.787 187.709 355.66 188.786 355.66H220.225C221.302 355.66 222.175 354.787 222.175 353.711C222.175 352.635 221.302 351.763 220.225 351.763Z" fill="#4C30FF"/>
<path d="M220.225 368.668H188.786C187.709 368.668 186.835 369.54 186.835 370.616C186.835 371.693 187.709 372.565 188.786 372.565H220.225C221.302 372.565 222.175 371.693 222.175 370.616C222.175 369.54 221.302 368.668 220.225 368.668Z" fill="#4C30FF"/>
<path d="M202.187 345.588H188.195C187.444 345.588 186.835 346.196 186.835 346.947V346.954C186.835 347.704 187.444 348.312 188.195 348.312H202.187C202.938 348.312 203.547 347.704 203.547 346.954V346.947C203.547 346.196 202.938 345.588 202.187 345.588Z" fill="#4C30FF"/>
<path d="M192.413 362.61C192.413 361.071 191.164 359.824 189.624 359.824C188.084 359.824 186.835 361.071 186.835 362.61C186.835 364.148 188.084 365.395 189.624 365.395C191.164 365.395 192.413 364.148 192.413 362.61Z" fill="#4C30FF"/>
<path d="M199.858 362.61C199.858 361.071 198.61 359.824 197.07 359.824C195.53 359.824 194.281 361.071 194.281 362.61C194.281 364.148 195.53 365.395 197.07 365.395C198.61 365.395 199.858 364.148 199.858 362.61Z" fill="#4C30FF"/>
<path d="M207.297 362.61C207.297 361.071 206.049 359.824 204.509 359.824C202.969 359.824 201.72 361.071 201.72 362.61C201.72 364.148 202.969 365.395 204.509 365.395C206.049 365.395 207.297 364.148 207.297 362.61Z" fill="#4C30FF"/>
<path d="M214.736 362.61C214.736 361.071 213.488 359.824 211.948 359.824C210.407 359.824 209.159 361.071 209.159 362.61C209.159 364.148 210.407 365.395 211.948 365.395C213.488 365.395 214.736 364.148 214.736 362.61Z" fill="#4C30FF"/>
<path d="M222.175 362.61C222.175 361.071 220.927 359.824 219.387 359.824C217.846 359.824 216.598 361.071 216.598 362.61C216.598 364.148 217.846 365.395 219.387 365.395C220.927 365.395 222.175 364.148 222.175 362.61Z" fill="#4C30FF"/>
<path d="M232.259 327.345H197.715V317.274V295.594H232.259V327.345Z" fill="#4C30FF"/>
<path d="M232.946 328.031H197.029V294.908H232.946V328.031ZM198.402 326.659H231.572V296.28H198.402V326.659Z" fill="black"/>
<path d="M197.715 315.62L206.185 307.476L218.253 317.651L232.259 305.109" fill="#4C30FF"/>
<path d="M218.267 318.563L206.212 308.396L198.189 316.114L197.235 315.126L206.15 306.55L218.239 316.745L231.799 304.602L232.719 305.624L218.267 318.563Z" fill="black"/>
<path d="M218.006 307.147C219.671 307.147 221.021 305.799 221.021 304.135C221.021 302.472 219.671 301.123 218.006 301.123C216.341 301.123 214.991 302.472 214.991 304.135C214.991 305.799 216.341 307.147 218.006 307.147Z" fill="#4C30FF"/>
<path d="M218.006 307.833C217.025 307.831 216.084 307.441 215.39 306.748C214.696 306.055 214.305 305.115 214.304 304.135C214.305 303.155 214.696 302.216 215.39 301.522C216.084 300.829 217.025 300.439 218.006 300.437C218.987 300.439 219.928 300.829 220.622 301.522C221.316 302.216 221.706 303.155 221.708 304.135C221.706 305.115 221.316 306.055 220.622 306.748C219.928 307.441 218.987 307.831 218.006 307.833ZM218.006 301.81C217.388 301.81 216.796 302.054 216.359 302.491C215.923 302.927 215.677 303.518 215.677 304.135C215.677 304.752 215.923 305.344 216.359 305.78C216.796 306.216 217.388 306.461 218.006 306.461C218.624 306.461 219.216 306.216 219.652 305.78C220.089 305.344 220.334 304.752 220.334 304.135C220.334 303.518 220.089 302.927 219.652 302.491C219.216 302.054 218.624 301.81 218.006 301.81Z" fill="black"/>
<path d="M337.62 281.515H270.875C267.84 281.515 265.38 283.972 265.38 287.004V376.482C265.38 379.514 267.84 381.971 270.875 381.971H337.62C340.655 381.971 343.115 379.514 343.115 376.482V287.004C343.115 283.972 340.655 281.515 337.62 281.515Z" fill="black"/>
<path d="M337.62 382.664H329.377V381.292H337.62C337.915 381.292 338.209 381.264 338.499 381.21L338.746 382.582C338.374 382.644 337.997 382.671 337.62 382.664ZM321.135 382.664H312.892V381.292H321.135V382.664ZM304.649 382.664H296.407V381.292H304.649V382.664ZM288.164 382.664H279.922V381.292H288.164V382.664ZM271.679 382.664H270.875C269.469 382.657 268.107 382.174 267.01 381.294C265.914 380.415 265.148 379.19 264.838 377.82L266.211 377.525C266.447 378.593 267.041 379.548 267.894 380.232C268.747 380.917 269.808 381.291 270.903 381.292H271.706L271.679 382.664ZM343.802 375.872H342.428V367.639H343.802V375.872ZM266.067 369.45H264.693V361.217H266.067V369.45ZM343.802 359.406H342.428V351.173H343.802V359.406ZM266.067 352.984H264.693V344.751H266.067V352.984ZM343.802 342.94H342.428V334.707H343.802V342.94ZM266.067 336.518H264.693V328.285H266.067V336.518ZM343.802 326.474H342.428V318.241H343.802V326.474ZM266.067 320.052H264.693V311.819H266.067V320.052ZM343.802 310.008H342.428V301.775H343.802V310.008ZM266.067 303.586H264.693V295.353H266.067V303.586ZM343.802 293.542H342.428V287.011C342.429 286.512 342.353 286.017 342.201 285.543L343.513 285.131C343.705 285.737 343.803 286.368 343.802 287.004V293.542ZM266.067 287.12H264.693V287.011C264.687 285.466 265.26 283.975 266.301 282.832C267.341 281.689 268.772 280.977 270.312 280.836L270.436 282.208C269.238 282.318 268.125 282.872 267.317 283.761C266.508 284.65 266.062 285.809 266.067 287.011V287.12ZM336.315 282.208H328.072V280.836H336.315V282.208ZM319.829 282.208H311.587V280.836H319.829V282.208ZM303.344 282.208H295.102V280.836H303.344V282.208ZM286.859 282.208H278.617V280.836H286.859V282.208Z" fill="#4657A3"/>
<path d="M427.34 281.515H360.596C357.561 281.515 355.101 283.972 355.101 287.004V376.482C355.101 379.514 357.561 381.971 360.596 381.971H427.34C430.375 381.971 432.835 379.514 432.835 376.482V287.004C432.835 283.972 430.375 281.515 427.34 281.515Z" fill="black"/>
<path d="M427.34 382.664H360.596C358.956 382.664 357.384 382.013 356.225 380.855C355.065 379.697 354.414 378.127 354.414 376.489V287.011C354.414 285.373 355.065 283.802 356.225 282.644C357.384 281.486 358.956 280.836 360.596 280.836H427.34C428.98 280.836 430.552 281.486 431.712 282.644C432.871 283.802 433.522 285.373 433.522 287.011V376.489C433.522 378.127 432.871 379.697 431.712 380.855C430.552 382.013 428.98 382.664 427.34 382.664ZM360.596 282.208C359.321 282.208 358.098 282.714 357.196 283.615C356.294 284.515 355.788 285.737 355.788 287.011V376.489C355.788 377.763 356.294 378.985 357.196 379.885C358.098 380.786 359.321 381.292 360.596 381.292H427.34C428.616 381.292 429.839 380.786 430.74 379.885C431.642 378.985 432.149 377.763 432.149 376.489V287.011C432.149 285.737 431.642 284.515 430.74 283.615C429.839 282.714 428.616 282.208 427.34 282.208H360.596Z" fill="#4C30FF"/>
<path d="M398.484 351.763H367.046C365.968 351.763 365.095 352.635 365.095 353.711C365.095 354.787 365.968 355.66 367.046 355.66H398.484C399.562 355.66 400.435 354.787 400.435 353.711C400.435 352.635 399.562 351.763 398.484 351.763Z" fill="#4C30FF"/>
<path d="M398.484 368.668H367.046C365.968 368.668 365.095 369.54 365.095 370.616C365.095 371.693 365.968 372.565 367.046 372.565H398.484C399.562 372.565 400.435 371.693 400.435 370.616C400.435 369.54 399.562 368.668 398.484 368.668Z" fill="#4C30FF"/>
<path d="M380.447 345.588H366.455C365.704 345.588 365.095 346.196 365.095 346.947V346.954C365.095 347.704 365.704 348.312 366.455 348.312H380.447C381.198 348.312 381.807 347.704 381.807 346.954V346.947C381.807 346.196 381.198 345.588 380.447 345.588Z" fill="#4C30FF"/>
<path d="M370.673 362.61C370.673 361.071 369.424 359.824 367.884 359.824C366.344 359.824 365.095 361.071 365.095 362.61C365.095 364.148 366.344 365.395 367.884 365.395C369.424 365.395 370.673 364.148 370.673 362.61Z" fill="#4C30FF"/>
<path d="M378.118 362.61C378.118 361.071 376.87 359.824 375.33 359.824C373.789 359.824 372.541 361.071 372.541 362.61C372.541 364.148 373.789 365.395 375.33 365.395C376.87 365.395 378.118 364.148 378.118 362.61Z" fill="#4C30FF"/>
<path d="M385.557 362.61C385.557 361.071 384.309 359.824 382.769 359.824C381.228 359.824 379.98 361.071 379.98 362.61C379.98 364.148 381.228 365.395 382.769 365.395C384.309 365.395 385.557 364.148 385.557 362.61Z" fill="#4C30FF"/>
<path d="M392.996 362.61C392.996 361.071 391.748 359.824 390.207 359.824C388.667 359.824 387.419 361.071 387.419 362.61C387.419 364.148 388.667 365.395 390.207 365.395C391.748 365.395 392.996 364.148 392.996 362.61Z" fill="#4C30FF"/>
<path d="M400.435 362.61C400.435 361.071 399.187 359.824 397.646 359.824C396.106 359.824 394.858 361.071 394.858 362.61C394.858 364.148 396.106 365.395 397.646 365.395C399.187 365.395 400.435 364.148 400.435 362.61Z" fill="#4C30FF"/>
<path d="M410.519 327.345H375.975V317.274V295.594H410.519V327.345Z" fill="#4C30FF"/>
<path d="M411.205 328.031H375.288V294.908H411.205V328.031ZM376.662 326.659H409.832V296.28H376.662V326.659Z" fill="black"/>
<path d="M375.975 315.62L384.438 307.476L396.506 317.651L410.519 305.109" fill="#4C30FF"/>
<path d="M396.52 318.563L384.472 308.396L376.449 316.114L375.494 315.126L384.41 306.55L396.499 316.745L410.058 304.602L410.979 305.624L396.52 318.563Z" fill="black"/>
<path d="M396.266 307.147C397.931 307.147 399.281 305.799 399.281 304.135C399.281 302.472 397.931 301.123 396.266 301.123C394.6 301.123 393.25 302.472 393.25 304.135C393.25 305.799 394.6 307.147 396.266 307.147Z" fill="#4C30FF"/>
<path d="M396.266 307.833C395.284 307.833 394.342 307.444 393.648 306.75C392.954 306.057 392.563 305.116 392.563 304.135C392.563 303.154 392.954 302.214 393.648 301.52C394.342 300.827 395.284 300.437 396.266 300.437C397.247 300.439 398.188 300.829 398.882 301.522C399.576 302.216 399.966 303.155 399.968 304.135C399.966 305.115 399.576 306.055 398.882 306.748C398.188 307.441 397.247 307.831 396.266 307.833ZM396.266 301.81C395.648 301.81 395.056 302.054 394.619 302.491C394.183 302.927 393.937 303.518 393.937 304.135C393.937 304.752 394.183 305.344 394.619 305.78C395.056 306.216 395.648 306.461 396.266 306.461C396.883 306.461 397.476 306.216 397.912 305.78C398.349 305.344 398.594 304.752 398.594 304.135C398.594 303.518 398.349 302.927 397.912 302.491C397.476 302.054 396.883 301.81 396.266 301.81V301.81Z" fill="black"/>
<path d="M384.909 228.445L308.019 239.855L322.798 339.22L399.688 327.811L384.909 228.445Z" fill="black"/>
<path d="M321.952 340.01L306.978 239.287L307.665 239.184L385.241 227.678L400.174 328.402L399.487 328.505L321.952 340.01ZM308.537 240.44L323.106 338.453L398.663 327.249L384.094 229.236L308.537 240.44Z" fill="#F48A4F"/>
<path d="M361.278 302.979L330.181 307.593C329.115 307.751 328.38 308.742 328.538 309.806C328.697 310.871 329.689 311.606 330.754 311.447L361.852 306.833C362.917 306.675 363.653 305.684 363.495 304.619C363.336 303.555 362.344 302.82 361.278 302.979Z" fill="black"/>
<path d="M330.188 312.156C329.624 312.156 329.075 311.976 328.622 311.641C328.059 311.223 327.686 310.598 327.584 309.905C327.482 309.215 327.658 308.512 328.074 307.951C328.49 307.39 329.112 307.017 329.803 306.914L360.905 302.303C361.247 302.251 361.597 302.267 361.933 302.351C362.269 302.435 362.585 302.584 362.863 302.791C363.142 302.995 363.378 303.254 363.556 303.551C363.734 303.848 363.851 304.177 363.9 304.519C364.011 305.211 363.842 305.918 363.431 306.486C363.02 307.053 362.401 307.434 361.709 307.545L330.607 312.156C330.467 312.168 330.327 312.168 330.188 312.156V312.156ZM361.297 303.648C361.233 303.642 361.168 303.642 361.104 303.648L330.009 308.259C329.677 308.308 329.379 308.487 329.179 308.756C328.98 309.024 328.895 309.361 328.944 309.693C328.967 309.857 329.023 310.015 329.108 310.158C329.193 310.3 329.305 310.424 329.439 310.523C329.71 310.721 330.048 310.805 330.38 310.756L361.475 306.146C361.807 306.096 362.105 305.918 362.305 305.649C362.504 305.38 362.589 305.043 362.54 304.712C362.517 304.548 362.461 304.389 362.376 304.247C362.291 304.104 362.179 303.98 362.045 303.882C361.828 303.725 361.565 303.643 361.297 303.648Z" fill="#4C30FF"/>
<path d="M363.759 319.694L332.662 324.308C331.596 324.466 330.861 325.457 331.019 326.522C331.177 327.586 332.17 328.321 333.235 328.163L364.333 323.548C365.398 323.39 366.134 322.399 365.976 321.335C365.817 320.27 364.825 319.536 363.759 319.694Z" fill="black"/>
<path d="M332.674 328.875C332.043 328.874 331.434 328.647 330.956 328.235C330.479 327.824 330.165 327.255 330.071 326.632C330.019 326.29 330.035 325.941 330.119 325.605C330.202 325.27 330.352 324.954 330.559 324.677C330.764 324.398 331.022 324.162 331.319 323.984C331.617 323.806 331.946 323.689 332.29 323.64L363.392 319.023C363.734 318.972 364.084 318.99 364.42 319.074C364.756 319.159 365.072 319.31 365.349 319.517C365.628 319.723 365.863 319.981 366.041 320.278C366.219 320.575 366.337 320.904 366.386 321.246C366.489 321.937 366.313 322.639 365.897 323.2C365.481 323.761 364.859 324.134 364.168 324.237L333.066 328.848C332.936 328.867 332.805 328.876 332.674 328.875V328.875ZM363.783 320.368H363.591L332.496 324.985C332.331 325.007 332.172 325.062 332.029 325.147C331.886 325.232 331.762 325.345 331.664 325.479C331.563 325.611 331.489 325.763 331.449 325.925C331.409 326.087 331.403 326.255 331.431 326.419C331.455 326.583 331.512 326.74 331.597 326.882C331.683 327.024 331.795 327.148 331.929 327.246C332.062 327.344 332.214 327.415 332.375 327.454C332.536 327.494 332.703 327.501 332.867 327.476L363.962 322.865C364.293 322.816 364.592 322.637 364.791 322.368C364.991 322.1 365.076 321.763 365.026 321.431C364.976 321.101 364.799 320.803 364.532 320.601C364.309 320.444 364.042 320.363 363.769 320.368H363.783Z" fill="#4C30FF"/>
<path d="M342.523 299.517L328.683 301.571C327.94 301.681 327.428 302.372 327.538 303.114L327.539 303.121C327.649 303.863 328.341 304.375 329.084 304.265L342.924 302.211C343.667 302.101 344.18 301.41 344.069 300.668L344.068 300.661C343.958 299.919 343.266 299.407 342.523 299.517Z" fill="black"/>
<path d="M328.615 304.972C328.177 304.97 327.751 304.828 327.399 304.568C327.179 304.404 326.995 304.199 326.855 303.963C326.716 303.727 326.625 303.467 326.588 303.195C326.547 302.929 326.56 302.656 326.626 302.395C326.692 302.133 326.81 301.888 326.973 301.672C327.137 301.454 327.343 301.271 327.579 301.133C327.815 300.995 328.076 300.906 328.347 300.87L342.181 298.811C342.718 298.735 343.263 298.872 343.699 299.195C344.135 299.517 344.426 299.998 344.509 300.533C344.586 301.07 344.448 301.615 344.125 302.05C343.803 302.486 343.321 302.776 342.785 302.859L328.944 304.917C328.837 304.948 328.726 304.966 328.615 304.972V304.972ZM342.455 300.17H342.352L328.519 302.228C328.341 302.253 328.181 302.347 328.072 302.489C327.965 302.635 327.921 302.818 327.948 302.996C327.977 303.172 328.073 303.329 328.216 303.435C328.36 303.543 328.54 303.59 328.718 303.566L342.552 301.508C342.728 301.479 342.886 301.383 342.993 301.239C343.099 301.096 343.145 300.916 343.122 300.739C343.09 300.59 343.009 300.456 342.892 300.358C342.775 300.26 342.629 300.203 342.476 300.197L342.455 300.17Z" fill="#4C30FF"/>
<path d="M335.353 317.784C335.127 316.263 333.708 315.213 332.185 315.439C330.661 315.665 329.61 317.081 329.836 318.603C330.062 320.125 331.481 321.175 333.004 320.949C334.528 320.723 335.579 319.306 335.353 317.784Z" fill="black"/>
<path d="M332.324 321.678C331.581 321.678 330.858 321.438 330.263 320.992C329.894 320.723 329.582 320.383 329.346 319.992C329.11 319.601 328.955 319.166 328.889 318.714C328.822 318.263 328.844 317.803 328.955 317.36C329.065 316.918 329.263 316.501 329.535 316.135C329.805 315.765 330.147 315.454 330.54 315.218C330.933 314.982 331.369 314.827 331.822 314.763C332.734 314.629 333.661 314.861 334.402 315.409C335.142 315.957 335.635 316.775 335.772 317.685C335.84 318.137 335.818 318.597 335.707 319.04C335.596 319.482 335.399 319.899 335.126 320.265C334.576 321.007 333.753 321.501 332.839 321.637V321.637C332.669 321.665 332.496 321.678 332.324 321.678ZM332.324 316.101C332.221 316.094 332.118 316.094 332.015 316.101C331.742 316.14 331.48 316.234 331.244 316.376C331.008 316.519 330.803 316.708 330.641 316.931C330.475 317.151 330.354 317.402 330.287 317.67C330.22 317.937 330.207 318.216 330.249 318.488C330.289 318.761 330.383 319.023 330.526 319.258C330.668 319.494 330.857 319.699 331.081 319.86C331.301 320.027 331.553 320.147 331.82 320.214C332.088 320.281 332.367 320.294 332.64 320.251V320.251C333.188 320.168 333.682 319.872 334.014 319.428C334.181 319.207 334.302 318.955 334.369 318.686C334.436 318.417 334.449 318.137 334.405 317.864C334.323 317.373 334.069 316.927 333.69 316.604C333.31 316.282 332.829 316.104 332.331 316.101H332.324Z" fill="#4C30FF"/>
<path d="M342.71 316.696C342.483 315.174 341.065 314.124 339.541 314.35C338.018 314.576 336.966 315.993 337.193 317.515C337.419 319.036 338.837 320.087 340.361 319.861C341.884 319.635 342.936 318.218 342.71 316.696Z" fill="black"/>
<path d="M339.687 320.58C338.855 320.58 338.051 320.281 337.421 319.738C336.791 319.196 336.376 318.445 336.253 317.623C336.183 317.172 336.204 316.712 336.315 316.269C336.426 315.826 336.624 315.409 336.899 315.044C337.168 314.675 337.509 314.364 337.9 314.128C338.292 313.892 338.727 313.737 339.179 313.672C339.631 313.602 340.092 313.623 340.535 313.734C340.979 313.845 341.396 314.043 341.762 314.317C342.131 314.586 342.443 314.926 342.678 315.317C342.914 315.708 343.07 316.142 343.135 316.594C343.269 317.505 343.036 318.431 342.488 319.17C341.94 319.91 341.12 320.402 340.209 320.539V320.539C340.037 320.567 339.862 320.581 339.687 320.58V320.58ZM339.687 315.009C339.584 315.003 339.481 315.003 339.378 315.009C339.105 315.049 338.843 315.143 338.607 315.285C338.371 315.428 338.166 315.616 338.004 315.84C337.838 316.06 337.718 316.311 337.65 316.579C337.583 316.846 337.57 317.124 337.613 317.397C337.696 317.948 337.994 318.443 338.442 318.775C338.89 319.107 339.451 319.248 340.003 319.167C340.554 319.084 341.05 318.786 341.381 318.338C341.712 317.891 341.851 317.33 341.768 316.78C341.73 316.507 341.637 316.246 341.495 316.01C341.354 315.774 341.166 315.57 340.944 315.407C340.59 315.153 340.165 315.014 339.728 315.009H339.687Z" fill="#4C30FF"/>
<path d="M350.08 315.6C349.853 314.078 348.435 313.028 346.911 313.254C345.388 313.48 344.336 314.897 344.563 316.418C344.789 317.94 346.208 318.99 347.731 318.764C349.254 318.538 350.306 317.121 350.08 315.6Z" fill="black"/>
<path d="M347.051 319.49C346.218 319.487 345.414 319.187 344.784 318.643C344.154 318.099 343.739 317.348 343.616 316.526C343.482 315.614 343.716 314.687 344.266 313.948C344.816 313.208 345.637 312.716 346.549 312.581C347.462 312.447 348.39 312.681 349.13 313.23C349.871 313.779 350.363 314.599 350.499 315.51C350.633 316.422 350.399 317.349 349.849 318.089C349.299 318.828 348.478 319.32 347.566 319.455V319.455C347.395 319.48 347.223 319.492 347.051 319.49ZM347.051 313.919C346.948 313.912 346.845 313.912 346.742 313.919C346.19 314.002 345.694 314.3 345.362 314.747C345.03 315.195 344.889 315.755 344.969 316.306C345.053 316.857 345.351 317.352 345.799 317.684C346.247 318.016 346.808 318.157 347.36 318.076C347.911 317.993 348.407 317.695 348.739 317.248C349.071 316.8 349.213 316.24 349.132 315.689C349.052 315.195 348.799 314.746 348.417 314.421C348.036 314.097 347.552 313.919 347.051 313.919V313.919Z" fill="#4C30FF"/>
<path d="M357.436 314.511C357.21 312.989 355.792 311.939 354.268 312.165C352.745 312.392 351.693 313.808 351.919 315.33C352.146 316.851 353.564 317.902 355.088 317.676C356.611 317.45 357.663 316.033 357.436 314.511Z" fill="black"/>
<path d="M354.4 318.399C353.657 318.399 352.934 318.158 352.34 317.713C351.97 317.443 351.657 317.101 351.422 316.709C351.186 316.317 351.031 315.881 350.966 315.428C350.832 314.518 351.065 313.591 351.613 312.852C352.162 312.113 352.981 311.621 353.892 311.483C354.804 311.35 355.733 311.583 356.473 312.132C357.214 312.681 357.706 313.501 357.841 314.413C357.911 314.864 357.89 315.325 357.779 315.768C357.668 316.211 357.47 316.627 357.196 316.992C356.926 317.361 356.586 317.673 356.194 317.908C355.803 318.144 355.368 318.299 354.915 318.365C354.744 318.386 354.572 318.397 354.4 318.399V318.399ZM354.4 312.828C354.297 312.821 354.194 312.821 354.091 312.828C353.54 312.911 353.044 313.209 352.712 313.656C352.379 314.104 352.238 314.664 352.319 315.216C352.402 315.763 352.699 316.256 353.143 316.588C353.365 316.755 353.617 316.876 353.886 316.943C354.155 317.01 354.435 317.022 354.709 316.979V316.979C355.259 316.894 355.753 316.596 356.083 316.148C356.247 315.927 356.365 315.675 356.431 315.408C356.497 315.141 356.509 314.863 356.468 314.591C356.39 314.102 356.14 313.656 355.764 313.333C355.388 313.011 354.91 312.832 354.414 312.828H354.4Z" fill="#4C30FF"/>
<path d="M377.022 318.602C376.791 317.079 375.368 316.031 373.843 316.262C372.318 316.493 371.269 317.914 371.5 319.437C371.731 320.96 373.155 322.008 374.679 321.777C376.204 321.546 377.253 320.125 377.022 318.602Z" fill="black"/>
<path d="M361.771 317.308C360.938 317.304 360.135 317.004 359.505 316.46C358.875 315.917 358.461 315.166 358.336 314.344C358.269 313.893 358.291 313.433 358.402 312.99C358.513 312.548 358.71 312.131 358.982 311.764C359.532 311.022 360.355 310.529 361.269 310.392C362.181 310.261 363.109 310.495 363.849 311.044C364.589 311.592 365.081 312.411 365.219 313.322C365.287 313.772 365.266 314.231 365.155 314.673C365.044 315.115 364.846 315.53 364.573 315.895C364.303 316.264 363.961 316.576 363.568 316.812C363.175 317.048 362.739 317.202 362.286 317.267V317.267C362.115 317.291 361.943 317.305 361.771 317.308V317.308ZM361.771 311.737C361.668 311.73 361.564 311.73 361.461 311.737C361.188 311.776 360.926 311.87 360.69 312.013C360.454 312.156 360.249 312.344 360.088 312.567C359.921 312.787 359.801 313.039 359.734 313.306C359.666 313.574 359.654 313.852 359.696 314.124C359.779 314.675 360.077 315.171 360.525 315.503C360.973 315.834 361.535 315.975 362.086 315.895V315.895C362.359 315.855 362.622 315.761 362.858 315.619C363.094 315.476 363.299 315.288 363.46 315.064C363.627 314.844 363.747 314.593 363.814 314.325C363.882 314.058 363.894 313.78 363.852 313.507C363.772 313.013 363.519 312.564 363.137 312.24C362.756 311.915 362.271 311.737 361.771 311.737Z" fill="#4C30FF"/>
<path d="M369.312 277.062L335.14 282.133L333.663 272.164L330.469 250.724L364.642 245.654L369.312 277.062Z" fill="black"/>
<path d="M334.563 282.908L329.693 250.147L365.226 244.879L370.096 277.639L352.329 280.273L334.563 282.908ZM331.252 251.3L335.724 281.35L368.536 276.486L364.065 246.436L331.252 251.3Z" fill="#4C30FF"/>
<path d="M333.416 270.531L340.594 261.228L354.029 269.529L366.043 255.067" fill="black"/>
<path d="M333.959 270.95L332.873 270.113L340.429 260.322L353.885 268.631L365.514 254.628L366.572 255.506L354.174 270.428L340.759 262.14L333.959 270.95Z" fill="#4C30FF"/>
<path d="M351.797 259.204C353.462 259.204 354.812 257.855 354.812 256.192C354.812 254.529 353.462 253.18 351.797 253.18C350.132 253.18 348.782 254.529 348.782 256.192C348.782 257.855 350.132 259.204 351.797 259.204Z" fill="black"/>
<path d="M351.797 259.897C350.91 259.895 350.052 259.576 349.381 258.997C348.709 258.418 348.267 257.617 348.136 256.741C347.992 255.77 348.24 254.782 348.824 253.994C349.409 253.205 350.283 252.681 351.254 252.535C351.735 252.463 352.225 252.487 352.697 252.604C353.168 252.722 353.612 252.931 354.002 253.221C354.392 253.51 354.722 253.874 354.972 254.291C355.222 254.707 355.387 255.169 355.458 255.65C355.601 256.619 355.354 257.606 354.771 258.394C354.481 258.784 354.117 259.113 353.7 259.363C353.283 259.612 352.821 259.778 352.34 259.849C352.16 259.878 351.979 259.894 351.797 259.897ZM351.797 253.866C351.683 253.855 351.568 253.855 351.454 253.866C351.151 253.91 350.86 254.014 350.597 254.171C350.335 254.328 350.106 254.535 349.923 254.78C349.741 255.025 349.609 255.304 349.534 255.601C349.46 255.897 349.444 256.205 349.489 256.507C349.534 256.81 349.637 257.1 349.794 257.363C349.951 257.625 350.159 257.854 350.404 258.036C350.65 258.218 350.929 258.35 351.226 258.425C351.522 258.499 351.831 258.515 352.134 258.47C352.437 258.426 352.729 258.322 352.992 258.164C353.255 258.006 353.484 257.797 353.665 257.55C353.848 257.306 353.98 257.028 354.054 256.732C354.129 256.437 354.143 256.13 354.098 255.828V255.828C354.054 255.525 353.95 255.233 353.792 254.971C353.634 254.708 353.425 254.479 353.178 254.298C352.778 254.011 352.296 253.859 351.804 253.866H351.797Z" fill="#4C30FF"/>
<path d="M310.104 237.521L305.498 238.204L306.182 242.806L310.789 242.122L310.104 237.521Z" fill="black"/>
<path d="M305.336 243.589L304.45 237.627L310.412 236.741L311.298 242.704L305.336 243.589ZM306.023 238.786L306.504 242.024L309.753 241.544L309.272 238.299L306.023 238.786Z" fill="#F48A4F"/>
<path d="M401.398 325.007L397.321 325.612L397.927 329.684L402.003 329.079L401.398 325.007Z" fill="black"/>
<path d="M397.076 330.467L396.273 325.04L401.706 324.23L402.51 329.657L397.076 330.467ZM397.832 326.193L398.237 328.937L400.985 328.532L400.579 325.788L397.832 326.193Z" fill="#F48A4F"/>
<path d="M324.779 336.797L320.703 337.402L321.308 341.474L325.385 340.869L324.779 336.797Z" fill="black"/>
<path d="M320.455 342.261L319.651 336.827L325.084 336.024L325.888 341.451L320.455 342.261ZM321.21 337.987L321.615 340.731L324.363 340.326L323.958 337.582L321.21 337.987Z" fill="#F48A4F"/>
<path d="M372.659 333.802L349.145 337.291C347.584 337.523 346.506 338.973 346.738 340.531C346.969 342.088 348.422 343.162 349.983 342.931L373.498 339.441C375.059 339.21 376.137 337.76 375.905 336.203C375.674 334.645 374.22 333.57 372.659 333.802Z" fill="#5C98D0"/>
<path d="M348.83 339.365L348.308 339.846L348.239 339.4L348.809 338.851L349.262 338.782L349.675 341.526L349.159 341.602L348.83 339.365Z" fill="white"/>
<path d="M350.121 340.587L350.588 340.518C350.597 340.589 350.622 340.656 350.659 340.717C350.697 340.777 350.747 340.829 350.806 340.868C350.865 340.908 350.932 340.934 351.002 340.946C351.072 340.958 351.144 340.955 351.213 340.937C351.57 340.888 351.708 340.69 351.667 340.415C351.625 340.141 351.44 339.997 351.11 340.045H350.897L350.842 339.681H351.041C351.351 339.633 351.474 339.468 351.433 339.215C351.428 339.159 351.411 339.106 351.383 339.058C351.355 339.01 351.316 338.969 351.27 338.938C351.224 338.907 351.171 338.887 351.116 338.879C351.061 338.871 351.005 338.875 350.952 338.892C350.889 338.897 350.827 338.915 350.771 338.944C350.715 338.973 350.665 339.013 350.624 339.061C350.583 339.11 350.552 339.166 350.533 339.226C350.514 339.287 350.507 339.35 350.513 339.414L350.059 339.482C350.048 339.362 350.061 339.241 350.098 339.125C350.135 339.01 350.194 338.904 350.273 338.812C350.352 338.721 350.448 338.646 350.557 338.593C350.665 338.539 350.783 338.508 350.904 338.501C351.474 338.419 351.859 338.7 351.914 339.105C351.943 339.242 351.924 339.385 351.861 339.51C351.797 339.635 351.692 339.734 351.563 339.791C351.721 339.795 351.871 339.857 351.987 339.964C352.102 340.072 352.174 340.217 352.189 340.374C352.264 340.882 351.914 341.252 351.282 341.348C351.155 341.384 351.022 341.392 350.892 341.372C350.762 341.352 350.638 341.304 350.528 341.232C350.418 341.159 350.325 341.065 350.254 340.953C350.184 340.842 350.139 340.717 350.121 340.587Z" fill="white"/>
<path d="M353.913 340.326L352.539 340.525V340.347L353.452 338.165L354.091 338.069L354.359 339.873L354.73 339.818L354.785 340.195L354.414 340.25L354.496 340.806L354.002 340.875L353.913 340.326ZM353.864 339.942L353.658 338.529L353.047 340.065L353.864 339.942Z" fill="white"/>
<path d="M355.197 340.422C355.187 340.341 355.209 340.26 355.257 340.195C355.306 340.129 355.378 340.086 355.458 340.072C355.539 340.06 355.622 340.081 355.687 340.13C355.753 340.179 355.796 340.252 355.808 340.333C355.814 340.372 355.812 340.413 355.802 340.452C355.792 340.49 355.774 340.527 355.75 340.559C355.726 340.591 355.695 340.617 355.66 340.638C355.626 340.658 355.587 340.671 355.547 340.676C355.508 340.683 355.467 340.682 355.428 340.672C355.388 340.663 355.351 340.646 355.319 340.622C355.286 340.599 355.258 340.569 355.237 340.534C355.217 340.5 355.203 340.462 355.197 340.422V340.422Z" fill="white"/>
<path d="M357.423 339.791L356.049 339.99V339.811L356.962 337.63L357.601 337.534L357.869 339.338L358.24 339.283L358.295 339.66L357.924 339.715L358.006 340.271L357.512 340.347L357.423 339.791ZM357.375 339.407L357.168 337.993L356.557 339.53L357.375 339.407Z" fill="white"/>
<path d="M358.549 338.933V338.864C358.412 337.918 358.81 337.328 359.469 337.232C359.574 337.204 359.682 337.197 359.789 337.212C359.896 337.227 359.999 337.263 360.092 337.318C360.184 337.373 360.265 337.446 360.329 337.532C360.394 337.619 360.44 337.717 360.465 337.822L359.992 337.897C359.979 337.849 359.957 337.803 359.926 337.764C359.896 337.724 359.858 337.691 359.814 337.666C359.771 337.641 359.723 337.625 359.673 337.619C359.623 337.612 359.573 337.616 359.524 337.63C359.154 337.685 358.961 338.041 359.037 338.672C359.091 338.547 359.179 338.438 359.29 338.359C359.401 338.279 359.532 338.231 359.669 338.22C359.787 338.196 359.908 338.197 360.025 338.223C360.143 338.249 360.253 338.299 360.35 338.37C360.447 338.441 360.528 338.532 360.588 338.636C360.648 338.74 360.686 338.855 360.699 338.974C360.722 339.104 360.716 339.237 360.683 339.364C360.65 339.492 360.591 339.611 360.508 339.713C360.426 339.816 360.322 339.9 360.205 339.959C360.087 340.019 359.958 340.053 359.827 340.058C359.016 340.175 358.659 339.653 358.549 338.933ZM360.184 339.063C360.18 338.991 360.161 338.921 360.128 338.857C360.095 338.793 360.049 338.737 359.992 338.692C359.936 338.647 359.87 338.615 359.8 338.597C359.73 338.58 359.657 338.577 359.586 338.59C359.516 338.597 359.448 338.618 359.386 338.652C359.324 338.686 359.271 338.733 359.228 338.789C359.185 338.845 359.155 338.909 359.138 338.978C359.122 339.047 359.12 339.118 359.133 339.187C359.136 339.262 359.154 339.336 359.188 339.403C359.222 339.47 359.27 339.529 359.328 339.576C359.387 339.623 359.455 339.656 359.528 339.674C359.601 339.693 359.677 339.695 359.751 339.681C359.822 339.672 359.89 339.649 359.951 339.612C360.011 339.576 360.064 339.526 360.105 339.468C360.146 339.41 360.174 339.344 360.187 339.274C360.201 339.204 360.2 339.133 360.184 339.063V339.063Z" fill="white"/>
<path d="M361.667 338.693L360.871 337.815L361.406 337.733L361.922 338.316L362.238 337.63L362.725 337.561L362.217 338.597L363.096 339.551L362.554 339.633L361.977 338.947L361.606 339.743L361.125 339.811L361.667 338.693Z" fill="white"/>
<path d="M363.316 338.768L363.797 338.7C363.83 338.805 363.903 338.894 364.001 338.946C364.098 338.999 364.212 339.011 364.319 338.981C364.71 338.919 364.875 338.576 364.786 337.952C364.734 338.076 364.648 338.183 364.539 338.261C364.43 338.34 364.302 338.387 364.168 338.398C364.049 338.423 363.926 338.422 363.808 338.397C363.689 338.371 363.577 338.322 363.479 338.251C363.381 338.18 363.298 338.089 363.237 337.984C363.176 337.88 363.137 337.764 363.124 337.643C363.101 337.513 363.107 337.379 363.14 337.251C363.173 337.123 363.233 337.003 363.317 336.899C363.4 336.796 363.504 336.712 363.622 336.652C363.741 336.592 363.87 336.558 364.003 336.552C364.69 336.449 365.143 336.882 365.26 337.664V337.808C365.39 338.707 365.068 339.269 364.367 339.372C364.148 339.429 363.914 339.398 363.718 339.285C363.521 339.172 363.377 338.986 363.316 338.768V338.768ZM364.69 337.437C364.687 337.361 364.668 337.287 364.634 337.219C364.6 337.151 364.551 337.092 364.492 337.044C364.433 336.997 364.364 336.962 364.29 336.944C364.216 336.925 364.14 336.923 364.065 336.937C363.994 336.945 363.926 336.969 363.866 337.006C363.805 337.042 363.753 337.091 363.713 337.15C363.672 337.208 363.645 337.274 363.632 337.344C363.62 337.414 363.622 337.485 363.639 337.554C363.643 337.626 363.662 337.697 363.695 337.761C363.728 337.825 363.774 337.881 363.831 337.925C363.887 337.97 363.953 338.003 364.023 338.02C364.093 338.038 364.165 338.04 364.236 338.028C364.305 338.019 364.371 337.997 364.43 337.963C364.49 337.928 364.542 337.882 364.583 337.827C364.624 337.771 364.653 337.709 364.669 337.642C364.685 337.575 364.688 337.505 364.676 337.437H364.69Z" fill="white"/>
<path d="M365.734 337.808V337.671C365.686 337.509 365.673 337.338 365.696 337.171C365.719 337.003 365.778 336.843 365.869 336.7C365.959 336.557 366.079 336.435 366.22 336.342C366.362 336.25 366.521 336.188 366.689 336.162C367.375 336.059 367.904 336.498 368.028 337.321V337.458C368.152 338.282 367.801 338.872 367.08 338.975C366.359 339.077 365.83 338.631 365.734 337.808ZM367.52 337.534V337.403C367.43 336.82 367.156 336.498 366.75 336.56C366.345 336.621 366.16 336.985 366.249 337.595V337.733C366.338 338.35 366.627 338.632 367.032 338.57C367.437 338.508 367.609 338.158 367.52 337.534Z" fill="white"/>
<path d="M368.488 338.453C368.481 338.413 368.483 338.372 368.492 338.333C368.501 338.294 368.518 338.257 368.542 338.224C368.565 338.192 368.595 338.164 368.63 338.144C368.664 338.123 368.702 338.109 368.742 338.103C368.783 338.096 368.824 338.098 368.864 338.107C368.903 338.117 368.941 338.134 368.973 338.159C369.006 338.183 369.034 338.214 369.054 338.249C369.075 338.284 369.088 338.323 369.093 338.364C369.098 338.403 369.096 338.444 369.086 338.483C369.076 338.521 369.059 338.558 369.034 338.59C369.01 338.622 368.98 338.649 368.945 338.669C368.91 338.689 368.872 338.702 368.832 338.707C368.752 338.718 368.672 338.698 368.607 338.651C368.543 338.603 368.5 338.532 368.488 338.453Z" fill="white"/>
<path d="M369.464 338.487L370.336 337.246C370.541 337.016 370.649 336.716 370.638 336.408C370.637 336.352 370.623 336.297 370.597 336.247C370.571 336.197 370.535 336.153 370.49 336.119C370.445 336.084 370.393 336.061 370.338 336.049C370.283 336.037 370.226 336.038 370.171 336.052C369.896 336.093 369.745 336.271 369.759 336.669L369.292 336.738C369.267 336.611 369.27 336.481 369.299 336.355C369.329 336.23 369.385 336.112 369.463 336.009C369.542 335.907 369.641 335.822 369.755 335.761C369.869 335.7 369.994 335.663 370.123 335.654C370.236 335.621 370.355 335.614 370.471 335.632C370.587 335.65 370.698 335.693 370.795 335.758C370.893 335.824 370.975 335.91 371.036 336.01C371.096 336.111 371.134 336.223 371.146 336.34C371.16 336.534 371.132 336.728 371.064 336.91C370.997 337.092 370.891 337.258 370.755 337.396L370.24 338.082L371.401 337.911L371.462 338.302L369.477 338.597L369.464 338.487Z" fill="white"/>
<path d="M371.723 337.458C371.692 337.303 371.715 337.142 371.789 337.002C371.863 336.862 371.983 336.752 372.129 336.69C372.003 336.667 371.888 336.605 371.8 336.513C371.712 336.42 371.657 336.302 371.641 336.175C371.572 335.716 371.978 335.379 372.452 335.304C372.558 335.275 372.668 335.267 372.777 335.281C372.886 335.295 372.991 335.331 373.087 335.386C373.182 335.441 373.265 335.514 373.332 335.601C373.398 335.688 373.447 335.788 373.475 335.894C373.495 336.021 373.475 336.15 373.417 336.265C373.359 336.38 373.266 336.473 373.152 336.532C373.309 336.548 373.455 336.618 373.566 336.729C373.677 336.84 373.747 336.986 373.764 337.143C373.846 337.678 373.42 338.035 372.871 338.117C372.321 338.199 371.799 337.993 371.723 337.458ZM372.994 335.997C372.985 335.943 372.965 335.891 372.936 335.845C372.906 335.799 372.867 335.759 372.821 335.729C372.775 335.699 372.724 335.678 372.669 335.669C372.615 335.66 372.56 335.661 372.506 335.674C372.451 335.678 372.396 335.692 372.346 335.718C372.296 335.743 372.252 335.779 372.217 335.822C372.181 335.865 372.155 335.915 372.14 335.969C372.125 336.022 372.121 336.079 372.129 336.134C372.138 336.189 372.159 336.242 372.19 336.289C372.221 336.336 372.261 336.376 372.308 336.407C372.355 336.438 372.408 336.459 372.463 336.468C372.519 336.478 372.575 336.476 372.63 336.463C372.686 336.46 372.741 336.446 372.791 336.42C372.841 336.394 372.884 336.358 372.919 336.313C372.953 336.269 372.978 336.218 372.991 336.163C373.004 336.109 373.005 336.052 372.994 335.997V335.997ZM373.248 337.184C373.241 337.119 373.219 337.056 373.185 337C373.151 336.944 373.106 336.896 373.052 336.859C372.998 336.822 372.937 336.797 372.872 336.786C372.808 336.774 372.742 336.777 372.678 336.793C372.611 336.796 372.546 336.813 372.486 336.843C372.427 336.873 372.374 336.915 372.332 336.967C372.29 337.019 372.259 337.079 372.242 337.144C372.224 337.208 372.221 337.276 372.232 337.342C372.24 337.407 372.263 337.469 372.297 337.525C372.332 337.581 372.378 337.629 372.432 337.666C372.487 337.703 372.549 337.728 372.614 337.74C372.678 337.751 372.745 337.749 372.809 337.733C372.876 337.731 372.942 337.715 373.002 337.685C373.062 337.655 373.114 337.612 373.156 337.56C373.198 337.508 373.228 337.447 373.244 337.382C373.26 337.317 373.261 337.25 373.248 337.184V337.184Z" fill="white"/>
<path d="M206.096 262.769H179.061C177.923 262.769 177 263.689 177 264.824C177 265.959 177.923 266.879 179.061 266.879H206.096C207.234 266.879 208.157 265.959 208.157 264.824C208.157 263.689 207.234 262.769 206.096 262.769Z" fill="#4C30FF"/>
<path d="M230.206 262.769H213.955C212.817 262.769 211.894 263.689 211.894 264.824C211.894 265.959 212.817 266.879 213.955 266.879H230.206C231.344 266.879 232.267 265.959 232.267 264.824C232.267 263.689 231.344 262.769 230.206 262.769Z" fill="#4C30FF"/>
<path d="M203.246 208.246H230.282C231.42 208.246 232.342 207.327 232.342 206.192C232.342 205.057 231.42 204.137 230.282 204.137H203.246C202.108 204.137 201.185 205.057 201.185 206.192C201.185 207.327 202.108 208.246 203.246 208.246Z" fill="#4C30FF"/>
<path d="M179.136 208.246H195.388C196.526 208.246 197.449 207.327 197.449 206.192C197.449 205.057 196.526 204.137 195.388 204.137H179.136C177.998 204.137 177.076 205.057 177.076 206.192C177.076 207.327 177.998 208.246 179.136 208.246Z" fill="#4C30FF"/>
<path d="M197.881 223.903H178.106C177.537 223.903 177.076 224.364 177.076 224.932C177.076 225.5 177.537 225.961 178.106 225.961H197.881C198.45 225.961 198.912 225.5 198.912 224.932C198.912 224.364 198.45 223.903 197.881 223.903Z" fill="#4C30FF"/>
<path d="M220.288 223.903H203.631C203.062 223.903 202.601 224.364 202.601 224.932C202.601 225.5 203.062 225.961 203.631 225.961H220.288C220.857 225.961 221.318 225.5 221.318 224.932C221.318 224.364 220.857 223.903 220.288 223.903Z" fill="#4C30FF"/>
<path d="M271.076 223.903H254.419C253.85 223.903 253.389 224.364 253.389 224.932C253.389 225.5 253.85 225.961 254.419 225.961H271.076C271.645 225.961 272.106 225.5 272.106 224.932C272.106 224.364 271.645 223.903 271.076 223.903Z" fill="#4C30FF"/>
<path d="M248.986 223.903H236.869C236.3 223.903 235.839 224.364 235.839 224.932C235.839 225.5 236.3 225.961 236.869 225.961H248.986C249.555 225.961 250.016 225.5 250.016 224.932C250.016 224.364 249.555 223.903 248.986 223.903Z" fill="#4C30FF"/>
<path d="M231.648 223.903H225.02C224.451 223.903 223.99 224.364 223.99 224.932C223.99 225.5 224.451 225.961 225.02 225.961H231.648C232.218 225.961 232.679 225.5 232.679 224.932C232.679 224.364 232.218 223.903 231.648 223.903Z" fill="#4C30FF"/>
<path d="M214.023 218.949H230.68C231.249 218.949 231.71 218.489 231.71 217.92C231.71 217.352 231.249 216.891 230.68 216.891H214.023C213.454 216.891 212.993 217.352 212.993 217.92C212.993 218.489 213.454 218.949 214.023 218.949Z" fill="#4C30FF"/>
<path d="M241.643 218.949H258.3C258.869 218.949 259.33 218.489 259.33 217.92C259.33 217.352 258.869 216.891 258.3 216.891H241.643C241.074 216.891 240.613 217.352 240.613 217.92C240.613 218.489 241.074 218.949 241.643 218.949Z" fill="#4C30FF"/>
<path d="M178.106 218.949H208.782C209.351 218.949 209.812 218.489 209.812 217.92C209.812 217.352 209.351 216.891 208.782 216.891H178.106C177.537 216.891 177.076 217.352 177.076 217.92C177.076 218.489 177.537 218.949 178.106 218.949Z" fill="#4C30FF"/>
<path d="M235.172 218.949H237.247C237.816 218.949 238.277 218.489 238.277 217.92C238.277 217.352 237.816 216.891 237.247 216.891H235.172C234.603 216.891 234.142 217.352 234.142 217.92C234.142 218.489 234.603 218.949 235.172 218.949Z" fill="#4C30FF"/>
<path d="M371.698 262.907L370.502 263.084L371.58 270.332L372.776 270.155L371.698 262.907Z" fill="black"/>
<path d="M377.778 264.728L377.6 263.533L375.208 263.888L375.386 265.083L377.778 264.728Z" fill="black"/>
<path d="M364.614 267.72L364.121 267.794L364.193 268.287L366.294 282.546L365.667 282.641L365.498 281.502L365.425 281.006L364.93 281.08L363.809 281.249L363.641 280.119L363.567 279.623L363.072 279.698L361.951 279.866L361.783 278.736L361.709 278.239L361.212 278.315L357.924 278.82L357.434 278.895L357.505 279.386L357.979 282.637L358.051 283.134L358.548 283.06L359.675 282.891L359.836 284.027L359.907 284.526L360.406 284.452L361.592 284.274L362.001 287.03L362.075 287.525L362.57 287.451L363.691 287.282L364.101 290.047L364.174 290.543L364.669 290.468L365.79 290.3L366.2 293.056L366.273 293.551L366.769 293.477L367.888 293.308L368.29 296.072L368.362 296.569L368.858 296.495L383.423 294.318L383.917 294.244L383.844 293.75L383.676 292.618L384.807 292.449L385.301 292.375L385.228 291.881L384.819 289.117L385.938 288.955L386.435 288.883L386.361 288.387L385.951 285.62L387.074 285.451L387.567 285.377L387.495 284.884L386.055 275.111L385.984 274.632L385.503 274.688L384.358 274.819L383.946 272.046L383.873 271.551L383.377 271.625L380.145 272.111L379.652 272.185L379.724 272.679L380.627 278.809L379.999 278.904L378.614 269.534L378.541 269.038L378.045 269.112L374.813 269.598L374.32 269.672L374.393 270.166L375.286 276.212L374.658 276.306L373.273 266.927L373.2 266.431L372.705 266.506L369.463 266.991L368.969 267.065L369.042 267.559L370.428 276.931L369.8 277.026L368.415 267.656L368.342 267.16L367.846 267.234L364.614 267.72Z" fill="black" stroke="#9079A7"/>
<path d="M386.836 226.143L382.229 226.827L382.913 231.428L387.52 230.745L386.836 226.143Z" fill="black"/>
<path d="M382.069 232.218L381.183 226.256L387.145 225.371L388.031 231.333L382.069 232.218ZM382.756 227.416L383.237 230.661L386.486 230.181L386.005 226.929L382.756 227.416Z" fill="#F48A4F"/>
<path d="M469.866 155.467H240.008C237.789 155.498 235.648 154.648 234.055 153.105C232.462 151.562 231.547 149.45 231.511 147.234C231.547 145.017 232.462 142.906 234.055 141.362C235.648 139.819 237.789 138.97 240.008 139.001H469.866C472.085 138.97 474.226 139.819 475.819 141.362C477.412 142.906 478.327 145.017 478.363 147.234C478.327 149.45 477.412 151.562 475.819 153.105C474.226 154.648 472.085 155.498 469.866 155.467V155.467ZM240.008 141.059C238.335 141.026 236.717 141.658 235.51 142.815C234.303 143.973 233.606 145.563 233.572 147.234C233.606 148.905 234.303 150.494 235.51 151.652C236.717 152.81 238.335 153.442 240.008 153.409H469.866C471.539 153.442 473.157 152.81 474.364 151.652C475.571 150.494 476.268 148.905 476.302 147.234C476.268 145.563 475.571 143.973 474.364 142.815C473.157 141.658 471.539 141.026 469.866 141.059H240.008Z" fill="#9079A7"/>
</g>
<defs>
<filter id="filter0_f_1_2512" x="-38" y="-54" width="680" height="653" filterUnits="userSpaceOnUse" color-interpolation-filters="sRGB">
<feFlood flood-opacity="0" result="BackgroundImageFix"/>
<feBlend mode="normal" in="SourceGraphic" in2="BackgroundImageFix" result="shape"/>
<feGaussianBlur stdDeviation="75" result="effect1_foregroundBlur_1_2512"/>
</filter>
<clipPath id="clip0_1_2512">
<rect width="393" height="315" fill="white" transform="translate(105 117)"/>
</clipPath>
</defs>
</svg>
