<svg width="604" height="544" viewBox="0 0 604 544" fill="none" xmlns="http://www.w3.org/2000/svg">
<mask id="mask0_1_2640" style="mask-type:alpha" maskUnits="userSpaceOnUse" x="0" y="0" width="604" height="544">
<rect width="604" height="544" rx="4" fill="#2F2F2F"/>
</mask>
<g mask="url(#mask0_1_2640)">
<g opacity="0.6" filter="url(#filter0_f_1_2640)">
<ellipse cx="302" cy="272.5" rx="184" ry="171.5" fill="#4F4FFF"/>
</g>
</g>
<g clip-path="url(#clip0_1_2640)">
<path d="M45.4268 338.208L39.5318 330.978C37.7563 329.06 36.7711 326.542 36.7739 323.929V105.167C36.7739 102.412 37.8683 99.77 39.8164 97.8219C41.7644 95.8737 44.4066 94.7792 47.1615 94.7792H352.039C353.537 94.7813 355.017 95.1075 356.377 95.7351C357.737 96.3626 358.945 97.2768 359.918 98.4151L365.943 105.822" fill="black"/>
<path d="M44.8399 338.701L38.9501 331.471C37.0583 329.416 36.0121 326.722 36.0208 323.929V105.167C36.0236 102.206 37.2009 99.3677 39.2945 97.274C41.388 95.1803 44.2268 94.0028 47.1875 94H352.065C353.673 93.9997 355.262 94.3467 356.723 95.0173C358.184 95.6878 359.483 96.6661 360.531 97.8852L366.572 105.308L365.362 106.289L359.337 98.8878C358.436 97.8424 357.319 97.0038 356.065 96.4292C354.81 95.8546 353.446 95.5574 352.065 95.5582H47.1875C44.64 95.561 42.1976 96.5742 40.3963 98.3757C38.5949 100.177 37.5817 102.62 37.579 105.167V323.929C37.5748 326.345 38.4838 328.674 40.1239 330.448L46.0501 337.719L44.8399 338.701Z" fill="#9079A7"/>
<path d="M48.278 94.2141L47.0697 95.1979L51.9361 101.176L53.1444 100.192L48.278 94.2141Z" fill="#9079A7"/>
<path d="M37.2083 105.495L36 106.479L41.5324 113.275L42.7408 112.291L37.2083 105.495Z" fill="#9079A7"/>
<path d="M357.14 100.763H52.3138C46.6228 100.763 42.0093 105.377 42.0093 111.068V330.401C42.0093 336.092 46.6228 340.706 52.3138 340.706H357.14C362.831 340.706 367.444 336.092 367.444 330.401V111.068C367.444 105.377 362.831 100.763 357.14 100.763Z" fill="black"/>
<path d="M357.14 341.485H52.3138C49.3751 341.482 46.5575 340.314 44.4795 338.236C42.4016 336.157 41.233 333.34 41.2302 330.401V111.073C41.233 108.134 42.4014 105.316 44.4792 103.237C46.5571 101.158 49.3746 99.9878 52.3138 99.9836H357.14C360.079 99.9891 362.895 101.159 364.973 103.238C367.05 105.317 368.219 108.134 368.223 111.073V330.401C368.219 333.339 367.05 336.156 364.973 338.234C362.895 340.312 360.078 341.481 357.14 341.485V341.485ZM52.3138 101.542C49.7879 101.546 47.3666 102.552 45.581 104.338C43.7954 106.125 42.7911 108.547 42.7884 111.073V330.401C42.7911 332.926 43.7955 335.348 45.5813 337.134C47.3671 338.919 49.7884 339.924 52.3138 339.927H357.14C359.665 339.924 362.086 338.919 363.872 337.134C365.658 335.348 366.662 332.926 366.665 330.401V111.073C366.663 108.547 365.658 106.125 363.873 104.338C362.087 102.552 359.666 101.546 357.14 101.542H52.3138Z" fill="#9079A7"/>
<path d="M367.444 131.294H42.0093V132.852H367.444V131.294Z" fill="#9079A7"/>
<path d="M60.9408 123.487C59.2628 123.511 57.6441 122.868 56.4396 121.699C55.2351 120.531 54.5433 118.932 54.516 117.254C54.5433 115.576 55.2351 113.978 56.4396 112.809C57.6441 111.641 59.2628 110.998 60.9408 111.021C62.6187 110.998 64.2375 111.641 65.4419 112.809C66.6464 113.978 67.3382 115.576 67.3655 117.254C67.3382 118.932 66.6464 120.531 65.4419 121.699C64.2375 122.868 62.6187 123.511 60.9408 123.487V123.487ZM60.9408 112.58C59.6757 112.555 58.4524 113.033 57.5398 113.91C56.6272 114.786 56.1001 115.989 56.0741 117.254C56.1014 118.519 56.629 119.721 57.5413 120.598C58.4536 121.474 59.6761 121.953 60.9408 121.929C62.2055 121.953 63.4279 121.474 64.3402 120.598C65.2525 119.721 65.7801 118.519 65.8074 117.254C65.7801 115.99 65.2523 114.788 64.3399 113.913C63.4275 113.037 62.205 112.56 60.9408 112.585V112.58Z" fill="#9079A7"/>
<path d="M83.5495 123.487C81.8716 123.511 80.2528 122.868 79.0483 121.699C77.8439 120.531 77.1521 118.932 77.1248 117.254C77.1521 115.576 77.8439 113.978 79.0483 112.809C80.2528 111.641 81.8716 110.998 83.5495 111.021C85.2274 110.998 86.8462 111.641 88.0507 112.809C89.2552 113.978 89.9469 115.576 89.9743 117.254C89.9469 118.932 89.2552 120.531 88.0507 121.699C86.8462 122.868 85.2274 123.511 83.5495 123.487V123.487ZM83.5495 112.58C82.2844 112.555 81.0611 113.033 80.1486 113.91C79.236 114.786 78.7088 115.989 78.6829 117.254C78.7102 118.519 79.2377 119.721 80.15 120.598C81.0623 121.474 82.2848 121.953 83.5495 121.929C84.8142 121.953 86.0367 121.474 86.949 120.598C87.8612 119.721 88.3889 118.519 88.4161 117.254C88.3889 115.99 87.8611 114.788 86.9487 113.913C86.0362 113.037 84.8137 112.56 83.5495 112.585V112.58Z" fill="#9079A7"/>
<path d="M106.127 123.487C104.449 123.511 102.83 122.868 101.626 121.699C100.421 120.531 99.7297 118.932 99.7023 117.254C99.7297 115.576 100.421 113.978 101.626 112.809C102.83 111.641 104.449 110.998 106.127 111.021C107.805 110.998 109.424 111.641 110.628 112.809C111.833 113.978 112.525 115.576 112.552 117.254C112.525 118.932 111.833 120.531 110.628 121.699C109.424 122.868 107.805 123.511 106.127 123.487V123.487ZM106.127 112.58C104.862 112.555 103.639 113.033 102.726 113.91C101.814 114.786 101.286 115.989 101.26 117.254C101.288 118.519 101.815 119.721 102.728 120.598C103.64 121.474 104.862 121.953 106.127 121.929C107.391 121.951 108.613 121.472 109.525 120.596C110.437 119.72 110.965 118.519 110.994 117.254C110.965 115.991 110.437 114.79 109.525 113.914C108.613 113.039 107.391 112.561 106.127 112.585V112.58Z" fill="#9079A7"/>
<path d="M275.965 187.541V174.587H91.0547V187.541H275.965Z" fill="#4C30FF"/>
<path d="M210.996 207.44V194.486H91.0494V207.44H210.996Z" fill="#F48A4F"/>
<path d="M156.45 227.006V214.052H90.8521V227.006H156.45Z" fill="#9079A7"/>
<path d="M69.8066 221.308H82.4017C82.8319 221.308 83.1807 220.959 83.1807 220.529C83.1807 220.099 82.8319 219.75 82.4017 219.75H69.8066C69.3763 219.75 69.0275 220.099 69.0275 220.529C69.0275 220.959 69.3763 221.308 69.8066 221.308Z" fill="#4656A2"/>
<path d="M64.9088 221.308H66.4774C66.9077 221.308 67.2565 220.959 67.2565 220.529C67.2565 220.099 66.9077 219.75 66.4774 219.75H64.9088C64.4786 219.75 64.1298 220.099 64.1298 220.529C64.1298 220.959 64.4786 221.308 64.9088 221.308Z" fill="#4656A2"/>
<path d="M77.7065 200.184H65.1114C64.6811 200.184 64.3323 200.533 64.3323 200.963C64.3323 201.393 64.6811 201.742 65.1114 201.742H77.7065C78.1367 201.742 78.4855 201.393 78.4855 200.963C78.4855 200.533 78.1367 200.184 77.7065 200.184Z" fill="#4656A2"/>
<path d="M82.5991 200.184H81.0305C80.6003 200.184 80.2515 200.533 80.2515 200.963C80.2515 201.393 80.6003 201.742 81.0305 201.742H82.5991C83.0293 201.742 83.3782 201.393 83.3782 200.963C83.3782 200.533 83.0293 200.184 82.5991 200.184Z" fill="#4656A2"/>
<path d="M73.9461 180.285H65.1114C64.6811 180.285 64.3323 180.634 64.3323 181.064C64.3323 181.494 64.6811 181.843 65.1114 181.843H73.9461C74.3764 181.843 74.7252 181.494 74.7252 181.064C74.7252 180.634 74.3764 180.285 73.9461 180.285Z" fill="#4656A2"/>
<path d="M82.6042 180.285H76.9897C76.5594 180.285 76.2106 180.634 76.2106 181.064C76.2106 181.494 76.5594 181.843 76.9897 181.843H82.6042C83.0345 181.843 83.3833 181.494 83.3833 181.064C83.3833 180.634 83.0345 180.285 82.6042 180.285Z" fill="#4656A2"/>
<path d="M189.898 266.477V253.522H91.0545V266.477H189.898Z" fill="#4C30FF"/>
<path d="M246.07 286.37V273.416H91.0495V286.37H246.07Z" fill="#F48A4F"/>
<path d="M200.676 305.942V292.987H90.852V305.942H200.676Z" fill="#9079A7"/>
<path d="M77.5039 298.685H64.9088C64.4786 298.685 64.1298 299.034 64.1298 299.465C64.1298 299.895 64.4786 300.244 64.9088 300.244H77.5039C77.9341 300.244 78.2829 299.895 78.2829 299.465C78.2829 299.034 77.9341 298.685 77.5039 298.685Z" fill="#4656A2"/>
<path d="M82.4017 298.685H80.8332C80.4029 298.685 80.0541 299.034 80.0541 299.465C80.0541 299.895 80.4029 300.244 80.8332 300.244H82.4017C82.832 300.244 83.1808 299.895 83.1808 299.465C83.1808 299.034 82.832 298.685 82.4017 298.685Z" fill="#4656A2"/>
<path d="M74.4707 279.114H65.1114C64.6811 279.114 64.3323 279.463 64.3323 279.893C64.3323 280.323 64.6811 280.672 65.1114 280.672H74.4707C74.901 280.672 75.2498 280.323 75.2498 279.893C75.2498 279.463 74.901 279.114 74.4707 279.114Z" fill="#4656A2"/>
<path d="M82.6042 279.114H77.2182C76.788 279.114 76.4391 279.463 76.4391 279.893C76.4391 280.323 76.788 280.672 77.2182 280.672H82.6042C83.0345 280.672 83.3833 280.323 83.3833 279.893C83.3833 279.463 83.0345 279.114 82.6042 279.114Z" fill="#4656A2"/>
<path d="M73.7696 260.773H82.6043C83.0346 260.773 83.3834 260.425 83.3834 259.994C83.3834 259.564 83.0346 259.215 82.6043 259.215H73.7696C73.3393 259.215 72.9905 259.564 72.9905 259.994C72.9905 260.425 73.3393 260.773 73.7696 260.773Z" fill="#4656A2"/>
<path d="M65.1114 260.773H70.7259C71.1562 260.773 71.505 260.425 71.505 259.994C71.505 259.564 71.1562 259.215 70.7259 259.215H65.1114C64.6812 259.215 64.3324 259.564 64.3324 259.994C64.3324 260.425 64.6812 260.773 65.1114 260.773Z" fill="#4656A2"/>
<path d="M84.126 152.746H104.569C105.429 152.746 106.127 152.049 106.127 151.19C106.127 150.331 105.429 149.634 104.569 149.634H84.126C83.2655 149.634 82.5679 150.331 82.5679 151.19C82.5679 152.049 83.2655 152.746 84.126 152.746Z" fill="#4656A2"/>
<path d="M65.8905 152.746H78.1791C79.0396 152.746 79.7372 152.049 79.7372 151.19C79.7372 150.331 79.0396 149.634 78.1791 149.634H65.8905C65.03 149.634 64.3324 150.331 64.3324 151.19C64.3324 152.049 65.03 152.746 65.8905 152.746Z" fill="#4656A2"/>
<path d="M314.296 190.725H299.343C298.913 190.725 298.564 191.074 298.564 191.504C298.564 191.935 298.913 192.283 299.343 192.283H314.296C314.726 192.283 315.075 191.935 315.075 191.504C315.075 191.074 314.726 190.725 314.296 190.725Z" fill="#4656A2"/>
<path d="M331.233 190.725H318.638C318.208 190.725 317.859 191.074 317.859 191.504C317.859 191.935 318.208 192.283 318.638 192.283H331.233C331.663 192.283 332.012 191.935 332.012 191.504C332.012 191.074 331.663 190.725 331.233 190.725Z" fill="#4656A2"/>
<path d="M339.829 190.725H334.817C334.386 190.725 334.038 191.074 334.038 191.504C334.038 191.935 334.386 192.283 334.817 192.283H339.829C340.259 192.283 340.608 191.935 340.608 191.504C340.608 191.074 340.259 190.725 339.829 190.725Z" fill="#4656A2"/>
<path d="M342.135 196.034H329.54C329.109 196.034 328.761 196.383 328.761 196.813C328.761 197.243 329.109 197.592 329.54 197.592H342.135C342.565 197.592 342.914 197.243 342.914 196.813C342.914 196.383 342.565 196.034 342.135 196.034Z" fill="#4656A2"/>
<path d="M325.431 196.034H316.27C315.839 196.034 315.49 196.383 315.49 196.813C315.49 197.243 315.839 197.592 316.27 197.592H325.431C325.862 197.592 326.211 197.243 326.211 196.813C326.211 196.383 325.862 196.034 325.431 196.034Z" fill="#4656A2"/>
<path d="M299.343 197.592H311.938C312.368 197.592 312.717 197.243 312.717 196.813C312.717 196.382 312.368 196.034 311.938 196.034H299.343C298.913 196.034 298.564 196.382 298.564 196.813C298.564 197.243 298.913 197.592 299.343 197.592Z" fill="#4656A2"/>
<path d="M326.506 186.97H339.102C339.532 186.97 339.881 186.621 339.881 186.191C339.881 185.76 339.532 185.412 339.102 185.412H326.506C326.076 185.412 325.727 185.76 325.727 186.191C325.727 186.621 326.076 186.97 326.506 186.97Z" fill="#4656A2"/>
<path d="M299.348 186.97H322.544C322.974 186.97 323.323 186.621 323.323 186.191C323.323 185.76 322.974 185.412 322.544 185.412H299.348C298.918 185.412 298.569 185.76 298.569 186.191C298.569 186.621 298.918 186.97 299.348 186.97Z" fill="#4656A2"/>
<path d="M342.493 186.97H344.062C344.492 186.97 344.841 186.621 344.841 186.191C344.841 185.76 344.492 185.412 344.062 185.412H342.493C342.063 185.412 341.714 185.76 341.714 186.191C341.714 186.621 342.063 186.97 342.493 186.97Z" fill="#4656A2"/>
<path d="M320.565 174.587H300.122C299.261 174.587 298.564 175.284 298.564 176.143C298.564 177.002 299.261 177.698 300.122 177.698H320.565C321.425 177.698 322.123 177.002 322.123 176.143C322.123 175.284 321.425 174.587 320.565 174.587Z" fill="#4656A2"/>
<path d="M338.8 174.587H326.512C325.651 174.587 324.954 175.284 324.954 176.143C324.954 177.002 325.651 177.698 326.512 177.698H338.8C339.661 177.698 340.359 177.002 340.359 176.143C340.359 175.284 339.661 174.587 338.8 174.587Z" fill="#4656A2"/>
<path d="M334.754 202.038H329.742C329.312 202.038 328.963 202.387 328.963 202.817C328.963 203.247 329.312 203.596 329.742 203.596H334.754C335.185 203.596 335.533 203.247 335.533 202.817C335.533 202.387 335.185 202.038 334.754 202.038Z" fill="#4656A2"/>
<path d="M311.938 202.038H299.343C298.913 202.038 298.564 202.387 298.564 202.817C298.564 203.247 298.913 203.596 299.343 203.596H311.938C312.368 203.596 312.717 203.247 312.717 202.817C312.717 202.387 312.368 202.038 311.938 202.038Z" fill="#4656A2"/>
<path d="M320.528 202.038H315.516C315.086 202.038 314.737 202.387 314.737 202.817C314.737 203.247 315.086 203.596 315.516 203.596H320.528C320.959 203.596 321.308 203.247 321.308 202.817C321.308 202.387 320.959 202.038 320.528 202.038Z" fill="#4656A2"/>
<path d="M324.533 203.596H326.101C326.532 203.596 326.88 203.247 326.88 202.817C326.88 202.387 326.532 202.038 326.101 202.038H324.533C324.103 202.038 323.754 202.387 323.754 202.817C323.754 203.247 324.103 203.596 324.533 203.596Z" fill="#4656A2"/>
<path d="M325.608 271.214H340.561C340.991 271.214 341.34 270.865 341.34 270.435C341.34 270.004 340.991 269.655 340.561 269.655H325.608C325.178 269.655 324.829 270.004 324.829 270.435C324.829 270.865 325.178 271.214 325.608 271.214Z" fill="#4656A2"/>
<path d="M308.666 271.214H321.261C321.691 271.214 322.04 270.865 322.04 270.435C322.04 270.004 321.691 269.655 321.261 269.655H308.666C308.235 269.655 307.887 270.004 307.887 270.435C307.887 270.865 308.235 271.214 308.666 271.214Z" fill="#4656A2"/>
<path d="M300.075 271.214H305.087C305.517 271.214 305.866 270.865 305.866 270.435C305.866 270.004 305.517 269.655 305.087 269.655H300.075C299.645 269.655 299.296 270.004 299.296 270.435C299.296 270.865 299.645 271.214 300.075 271.214Z" fill="#4656A2"/>
<path d="M300.075 276.522H312.67C313.1 276.522 313.449 276.173 313.449 275.743C313.449 275.313 313.1 274.964 312.67 274.964H300.075C299.645 274.964 299.296 275.313 299.296 275.743C299.296 276.173 299.645 276.522 300.075 276.522Z" fill="#4656A2"/>
<path d="M316.784 276.522H325.946C326.376 276.522 326.725 276.173 326.725 275.743C326.725 275.313 326.376 274.964 325.946 274.964H316.784C316.353 274.964 316.005 275.313 316.005 275.743C316.005 276.173 316.353 276.522 316.784 276.522Z" fill="#4656A2"/>
<path d="M342.872 274.969H330.277C329.847 274.969 329.498 275.318 329.498 275.748C329.498 276.178 329.847 276.527 330.277 276.527H342.872C343.303 276.527 343.651 276.178 343.651 275.748C343.651 275.318 343.303 274.969 342.872 274.969Z" fill="#4656A2"/>
<path d="M317.635 280.973H305.04C304.61 280.973 304.261 281.322 304.261 281.753C304.261 282.183 304.61 282.532 305.04 282.532H317.635C318.066 282.532 318.415 282.183 318.415 281.753C318.415 281.322 318.066 280.973 317.635 280.973Z" fill="#4656A2"/>
<path d="M301.644 280.973H300.075C299.645 280.973 299.296 281.322 299.296 281.753C299.296 282.183 299.645 282.532 300.075 282.532H301.644C302.074 282.532 302.423 282.183 302.423 281.753C302.423 281.322 302.074 280.973 301.644 280.973Z" fill="#4656A2"/>
<path d="M307.757 253.522H300.854C299.994 253.522 299.296 254.219 299.296 255.078C299.296 255.937 299.994 256.634 300.854 256.634H307.757C308.617 256.634 309.315 255.937 309.315 255.078C309.315 254.219 308.617 253.522 307.757 253.522Z" fill="#4656A2"/>
<path d="M326.47 253.522H314.182C313.321 253.522 312.623 254.219 312.623 255.078C312.623 255.937 313.321 256.634 314.182 256.634H326.47C327.331 256.634 328.028 255.937 328.028 255.078C328.028 254.219 327.331 253.522 326.47 253.522Z" fill="#4656A2"/>
<path d="M335.487 264.212H330.475C330.044 264.212 329.696 264.561 329.696 264.991C329.696 265.421 330.044 265.77 330.475 265.77H335.487C335.917 265.77 336.266 265.421 336.266 264.991C336.266 264.561 335.917 264.212 335.487 264.212Z" fill="#4656A2"/>
<path d="M312.67 264.212H300.075C299.645 264.212 299.296 264.561 299.296 264.991C299.296 265.421 299.645 265.77 300.075 265.77H312.67C313.1 265.77 313.449 265.421 313.449 264.991C313.449 264.561 313.1 264.212 312.67 264.212Z" fill="#4656A2"/>
<path d="M321.261 264.212H316.249C315.818 264.212 315.47 264.561 315.47 264.991C315.47 265.421 315.818 265.77 316.249 265.77H321.261C321.691 265.77 322.04 265.421 322.04 264.991C322.04 264.561 321.691 264.212 321.261 264.212Z" fill="#4656A2"/>
<path d="M325.265 265.765H326.834C327.264 265.765 327.613 265.416 327.613 264.986C327.613 264.555 327.264 264.207 326.834 264.207H325.265C324.835 264.207 324.486 264.555 324.486 264.986C324.486 265.416 324.835 265.765 325.265 265.765Z" fill="#4656A2"/>
<path d="M274.257 454.52L268.367 447.29C266.589 445.374 265.604 442.855 265.609 440.241V230.694C265.609 227.939 266.703 225.297 268.651 223.348C270.599 221.4 273.242 220.306 275.997 220.306H545.852C547.35 220.308 548.83 220.634 550.19 221.262C551.55 221.889 552.758 222.803 553.731 223.942L559.756 231.343" fill="black"/>
<path d="M273.654 455.013L267.759 447.783C265.869 445.727 264.824 443.034 264.83 440.241V230.694C264.832 227.733 266.01 224.894 268.103 222.801C270.197 220.707 273.036 219.529 275.996 219.527H545.852C547.461 219.527 549.05 219.874 550.512 220.545C551.974 221.215 553.274 222.193 554.323 223.412L560.359 230.834L559.154 231.816L553.129 224.414C552.227 223.37 551.111 222.531 549.856 221.957C548.601 221.382 547.238 221.085 545.858 221.085H275.996C273.449 221.088 271.007 222.101 269.205 223.902C267.404 225.704 266.391 228.146 266.388 230.694V440.241C266.383 442.659 267.294 444.988 268.938 446.76L274.864 454.032L273.654 455.013Z" fill="#9079A7"/>
<path d="M277.027 219.78L275.819 220.764L280.685 226.742L281.894 225.758L277.027 219.78Z" fill="#9079A7"/>
<path d="M266.203 230.979L264.987 231.961L270.2 238.415L271.415 237.433L266.203 230.979Z" fill="#9079A7"/>
<path d="M550.833 226.284H281.232C275.495 226.284 270.844 230.935 270.844 236.673V446.833C270.844 452.57 275.495 457.221 281.232 457.221H550.833C556.57 457.221 561.221 452.57 561.221 446.833V236.673C561.221 230.935 556.57 226.284 550.833 226.284Z" fill="black"/>
<path d="M550.828 458H281.232C278.271 457.997 275.432 456.82 273.339 454.726C271.245 452.632 270.068 449.794 270.065 446.833V236.673C270.068 233.712 271.245 230.873 273.339 228.779C275.432 226.685 278.271 225.508 281.232 225.505H550.828C553.789 225.508 556.628 226.685 558.721 228.779C560.815 230.873 561.992 233.712 561.995 236.673V446.812C561.996 448.28 561.708 449.733 561.148 451.09C560.588 452.447 559.765 453.68 558.728 454.719C557.692 455.758 556.46 456.582 555.105 457.145C553.749 457.708 552.296 457.999 550.828 458V458ZM281.232 227.063C278.684 227.066 276.242 228.079 274.441 229.881C272.639 231.682 271.626 234.125 271.623 236.673V446.812C271.626 449.359 272.639 451.802 274.441 453.603C276.242 455.405 278.684 456.418 281.232 456.421H550.828C553.376 456.418 555.818 455.405 557.619 453.603C559.421 451.802 560.434 449.359 560.437 446.812V236.673C560.434 234.125 559.421 231.682 557.619 229.881C555.818 228.079 553.376 227.066 550.828 227.063H281.232Z" fill="#9079A7"/>
<path d="M292.944 248.588C291.266 248.612 289.647 247.968 288.443 246.8C287.238 245.631 286.547 244.033 286.519 242.355C286.547 240.677 287.238 239.078 288.443 237.91C289.647 236.741 291.266 236.098 292.944 236.122C294.623 236.097 296.243 236.739 297.449 237.908C298.654 239.077 299.347 240.676 299.374 242.355C299.347 244.034 298.654 245.633 297.449 246.802C296.243 247.971 294.623 248.613 292.944 248.588V248.588ZM292.944 237.68C291.679 237.657 290.457 238.135 289.545 239.012C288.632 239.888 288.105 241.09 288.077 242.355C288.106 243.619 288.634 244.821 289.546 245.697C290.458 246.573 291.68 247.052 292.944 247.03C294.209 247.053 295.432 246.575 296.345 245.698C297.258 244.822 297.787 243.62 297.816 242.355C297.787 241.09 297.258 239.888 296.345 239.013C295.432 238.138 294.209 237.66 292.944 237.685V237.68Z" fill="#9079A7"/>
<path d="M315.532 248.588C313.854 248.612 312.235 247.969 311.031 246.8C309.826 245.632 309.135 244.033 309.107 242.355C309.135 240.677 309.826 239.078 311.031 237.91C312.235 236.741 313.854 236.099 315.532 236.122C317.21 236.099 318.829 236.741 320.033 237.91C321.238 239.078 321.929 240.677 321.957 242.355C321.929 244.033 321.238 245.632 320.033 246.8C318.829 247.969 317.21 248.612 315.532 248.588V248.588ZM315.532 237.68C314.267 237.657 313.045 238.135 312.132 239.012C311.22 239.888 310.693 241.09 310.665 242.355C310.694 243.619 311.222 244.821 312.134 245.697C313.046 246.573 314.268 247.052 315.532 247.03C316.797 247.054 318.019 246.575 318.931 245.698C319.844 244.822 320.371 243.62 320.399 242.355C320.371 241.091 319.844 239.889 318.931 239.014C318.019 238.138 316.796 237.66 315.532 237.686V237.68Z" fill="#9079A7"/>
<path d="M338.12 248.588C336.442 248.612 334.823 247.969 333.619 246.8C332.414 245.632 331.723 244.033 331.695 242.355C331.723 240.677 332.414 239.078 333.619 237.91C334.823 236.741 336.442 236.099 338.12 236.122C339.798 236.099 341.417 236.741 342.621 237.91C343.826 239.078 344.517 240.677 344.545 242.355C344.517 244.033 343.826 245.632 342.621 246.8C341.417 247.969 339.798 248.612 338.12 248.588V248.588ZM338.12 237.68C336.855 237.655 335.632 238.134 334.719 239.01C333.806 239.887 333.279 241.09 333.253 242.355C333.281 243.62 333.808 244.822 334.721 245.698C335.633 246.575 336.855 247.054 338.12 247.03C339.385 247.054 340.607 246.575 341.519 245.698C342.432 244.822 342.959 243.62 342.987 242.355C342.959 241.091 342.432 239.889 341.519 239.014C340.607 238.138 339.384 237.66 338.12 237.686V237.68Z" fill="#9079A7"/>
<path d="M542.731 248.588H367.377C365.699 248.612 364.08 247.969 362.876 246.8C361.671 245.632 360.979 244.033 360.952 242.355C360.979 240.677 361.671 239.078 362.876 237.91C364.08 236.741 365.699 236.099 367.377 236.122H542.747C544.425 236.099 546.043 236.741 547.248 237.91C548.452 239.078 549.144 240.677 549.171 242.355C549.158 243.187 548.981 244.009 548.65 244.772C548.319 245.536 547.84 246.227 547.242 246.806C546.644 247.384 545.938 247.84 545.164 248.146C544.39 248.451 543.563 248.602 542.731 248.588V248.588ZM367.361 237.68C366.096 237.655 364.873 238.134 363.96 239.01C363.048 239.887 362.52 241.09 362.495 242.355C362.522 243.62 363.049 244.822 363.962 245.698C364.874 246.575 366.096 247.054 367.361 247.03H542.731C543.996 247.054 545.218 246.575 546.13 245.698C547.043 244.822 547.57 243.62 547.598 242.355C547.572 241.09 547.045 239.887 546.132 239.01C545.219 238.134 543.996 237.655 542.731 237.68H367.361Z" fill="#9079A7"/>
<path d="M561.221 256.395H270.844V257.953H561.221V256.395Z" fill="#9079A7"/>
<path d="M561.221 281.649H270.844V283.207H561.221V281.649Z" fill="#9079A7"/>
<path d="M561.221 365.404H270.844V366.962H561.221V365.404Z" fill="#9079A7"/>
<path d="M500.411 435.676H457.007C455.601 435.676 454.462 436.815 454.462 438.221V438.226C454.462 439.631 455.601 440.771 457.007 440.771H500.411C501.817 440.771 502.956 439.631 502.956 438.226V438.221C502.956 436.815 501.817 435.676 500.411 435.676Z" fill="#4656A2"/>
<path d="M514.809 446.163H438.87C438.167 446.163 437.597 446.732 437.597 447.435C437.597 448.138 438.167 448.708 438.87 448.708H514.809C515.512 448.708 516.081 448.138 516.081 447.435C516.081 446.732 515.512 446.163 514.809 446.163Z" fill="#4656A2"/>
<path d="M378.419 435.676H335.014C333.608 435.676 332.469 436.815 332.469 438.221V438.226C332.469 439.631 333.608 440.771 335.014 440.771H378.419C379.824 440.771 380.964 439.631 380.964 438.226V438.221C380.964 436.815 379.824 435.676 378.419 435.676Z" fill="#4656A2"/>
<path d="M392.821 446.163H316.882C316.18 446.163 315.61 446.732 315.61 447.435C315.61 448.138 316.18 448.708 316.882 448.708H392.821C393.524 448.708 394.094 448.138 394.094 447.435C394.094 446.732 393.524 446.163 392.821 446.163Z" fill="#4656A2"/>
<path d="M394.676 428.227H316.197V412.692V379.267H394.676V428.227Z" fill="#4A5767"/>
<path d="M395.455 429.006H315.438V378.488H395.481L395.455 429.006ZM316.971 427.448H393.897V380.046H316.997L316.971 427.448Z" fill="black"/>
<path d="M516.081 428.227H437.597V412.692V379.267H516.081V428.227Z" fill="#4A5767"/>
<path d="M516.86 429.006H436.818V378.488H516.86V429.006ZM438.377 427.448H515.302V380.046H438.377V427.448Z" fill="black"/>
<path d="M443.466 348.373H388.594V334.868H443.466V348.373ZM390.152 346.814H441.908V336.426H390.152V346.814Z" fill="#9079A7"/>
<path d="M448.349 306.747H383.717C382.736 306.747 381.94 307.542 381.94 308.523C381.94 309.504 382.736 310.299 383.717 310.299H448.349C449.33 310.299 450.125 309.504 450.125 308.523C450.125 307.542 449.33 306.747 448.349 306.747Z" fill="#9079A7"/>
<path d="M364.224 320.729H467.846C468.454 320.729 468.947 320.236 468.947 319.628C468.947 319.02 468.454 318.527 467.846 318.527H364.224C363.616 318.527 363.123 319.02 363.123 319.628C363.123 320.236 363.616 320.729 364.224 320.729Z" fill="#9079A7"/>
<path d="M302.854 275.353C305.883 275.353 308.339 272.898 308.339 269.868C308.339 266.839 305.883 264.383 302.854 264.383C299.825 264.383 297.369 266.839 297.369 269.868C297.369 272.898 299.825 275.353 302.854 275.353Z" fill="#9079A7"/>
<path d="M333.581 270.975H362.988C363.596 270.975 364.089 270.482 364.089 269.874C364.089 269.265 363.596 268.772 362.988 268.772H333.581C332.972 268.772 332.479 269.265 332.479 269.874C332.479 270.482 332.972 270.975 333.581 270.975Z" fill="#9079A7"/>
<path d="M391.227 270.975H420.634C421.242 270.975 421.735 270.482 421.735 269.874C421.735 269.265 421.242 268.772 420.634 268.772H391.227C390.619 268.772 390.126 269.265 390.126 269.874C390.126 270.482 390.619 270.975 391.227 270.975Z" fill="#9079A7"/>
<path d="M448.873 270.975H478.281C478.889 270.975 479.382 270.482 479.382 269.874C479.382 269.265 478.889 268.772 478.281 268.772H448.873C448.265 268.772 447.772 269.265 447.772 269.874C447.772 270.482 448.265 270.975 448.873 270.975Z" fill="#9079A7"/>
<path d="M506.525 270.975H535.932C536.54 270.975 537.033 270.482 537.033 269.874C537.033 269.265 536.54 268.772 535.932 268.772H506.525C505.917 268.772 505.424 269.265 505.424 269.874C505.424 270.482 505.917 270.975 506.525 270.975Z" fill="#9079A7"/>
<g opacity="0.6">
<path opacity="0.6" d="M528.058 410.058C519.436 405.529 509.589 403.965 500.479 400.501C487.822 395.686 476.629 387.214 463.52 383.812C455.152 381.646 444.952 382.254 439.628 389.037C436.486 393.032 435.556 398.548 431.957 402.137C428.446 405.638 423.127 406.552 418.198 406.812C403.869 407.529 389.663 404.137 375.334 403.539C361.004 402.942 345.381 405.768 335.694 416.348C333.934 418.27 332.381 420.503 331.778 423.007C329.934 430.736 337.289 437.509 344.384 441.077C364.811 451.341 390.162 451.144 410.423 440.558C415.305 438.008 420.011 434.845 425.407 433.759C435.343 431.728 445.102 436.979 454.493 440.864C476.5 449.943 500.755 452.085 524.012 447.004C531.538 445.337 542.243 441.519 543.614 432.813C545.058 423.365 535.459 413.949 528.058 410.058Z" fill="#9079A7"/>
<path opacity="0.6" d="M358.495 410.972C352.813 413.05 347.152 416.712 345.313 422.467C343.319 428.731 346.659 435.8 351.941 439.711C357.223 443.623 364.027 444.88 370.597 445.067C380.029 445.332 389.445 443.618 398.462 440.833C409.67 437.369 425.646 424.877 410.371 415.382C396.623 406.817 373.381 405.565 358.495 410.972Z" fill="#4C30FF"/>
<path opacity="0.6" d="M352.154 428.591C352.257 433.027 356.111 436.668 360.349 437.982C364.588 439.296 369.148 438.802 373.557 438.293L399.714 435.286C401.703 435.058 403.744 434.813 405.525 433.899C407.307 432.985 408.808 431.245 408.849 429.225C408.912 426.259 405.993 424.191 403.323 422.883C394.385 418.519 351.655 406.89 352.154 428.591Z" fill="#F48A4F"/>
<path opacity="0.6" d="M477.813 403.181C466.117 402.215 454.581 406.365 444.1 411.647C440.672 413.377 436.959 415.683 436.185 419.438C435.146 424.575 440.075 428.835 444.625 431.437C464.091 442.589 486.747 447.284 509.174 447.965C523.197 448.386 545.899 439.208 534.462 421.475C529.268 413.398 519.302 412.775 510.742 411.133C499.71 409.004 489.037 404.105 477.813 403.181Z" fill="#4C30FF"/>
<path opacity="0.6" d="M493.068 410.671C486.461 408.812 479.268 406.968 472.9 409.534C467.706 411.642 464.024 416.328 460.627 420.815C459.178 422.727 457.703 424.701 457.048 427.007C456.394 429.313 456.742 432.061 458.529 433.666C459.525 434.463 460.674 435.048 461.905 435.385C475.132 439.778 488.944 442.159 502.879 442.449C512.892 442.657 524.075 441.213 530.468 433.505C532.546 430.975 534.021 427.614 533.283 424.41C531.84 418.177 521.561 418.743 516.663 417.366L493.068 410.671Z" fill="#F48A4F"/>
<path opacity="0.6" d="M478.421 419.761C473.975 420.509 469.591 422.789 467.332 426.7C466.813 427.557 466.454 428.596 466.813 429.526C467.08 430.113 467.509 430.612 468.049 430.965C471.342 433.442 475.678 433.915 479.782 434.294L505.309 436.662C510.197 437.119 515.479 437.483 519.655 434.902C520.913 434.202 521.904 433.107 522.475 431.785C523.347 429.432 522.075 426.711 520.101 425.157C518.128 423.604 515.603 422.971 513.152 422.431C502.318 420.062 489.52 417.891 478.421 419.761Z" fill="#F08245" fill-opacity="0.8"/>
<path opacity="0.6" d="M355.005 428.928C354.87 429.982 355.053 431.052 355.529 432.001C356.006 432.951 356.755 433.736 357.68 434.258C359.15 435.047 360.895 435.089 362.567 435.099C369.146 435.141 375.725 435.051 382.304 434.829C383.898 434.777 385.56 434.699 386.978 433.931C388.396 433.162 389.404 431.474 388.895 429.962C388.565 429.168 388.014 428.486 387.306 427.999C382.87 424.456 376.97 423.464 371.329 422.831C366.655 422.311 355.95 422.571 355.005 428.928Z" fill="#F08245" fill-opacity="0.8"/>
<path opacity="0.6" d="M364.26 425.874C362.097 425.915 359.992 426.586 358.204 427.807C357.628 429.365 358.724 431.188 360.225 431.962C361.726 432.736 363.497 432.673 365.169 432.518C366.437 432.398 367.766 432.201 368.805 431.443C369.844 430.684 370.405 429.183 369.756 428.087C369.106 426.991 367.527 426.789 366.203 426.778C363.509 426.778 360.817 426.891 358.127 427.116" fill="#E6332A"/>
<path opacity="0.6" d="M486.908 425.672C485.147 425.796 482.862 426.56 482.971 428.321C483.059 429.78 484.783 430.471 486.212 430.783C493.181 432.299 500.323 432.865 507.444 432.465C508.774 432.393 510.301 432.175 511.017 431.053C514.939 424.908 489.281 425.516 486.908 425.672Z" fill="#E6332A"/>
</g>
<g opacity="0.6">
<path opacity="0.6" d="M353.717 262.887C345.594 263.168 337.756 260.238 329.825 258.42C321.894 256.602 312.987 256.052 306.214 260.545C302.724 262.867 299.95 267.271 301.509 271.162C302.366 273.291 304.329 274.798 306.365 275.836C319.801 282.848 335.84 275.27 350.944 273.992C356.568 273.514 364.089 275.784 363.876 281.43C363.705 285.965 358.537 288.339 354.205 289.689L339.714 294.208C332.672 296.4 324.382 300.01 323.499 307.339C322.648 314.413 329.571 320.007 336.287 322.402C338.977 323.363 342 324.256 343.475 326.713C345.594 330.276 343.064 334.878 339.875 337.522C336.686 340.166 332.682 342.036 330.501 345.557C327.244 350.824 329.426 358.101 333.892 362.392C338.359 366.682 344.519 368.624 350.512 370.219C379.832 377.948 411.124 379.677 440.464 372.021C448.255 369.98 457.131 365.986 458.643 358.044C459.894 351.401 455.282 344.539 456.986 338.026C459.427 328.635 472.864 326.048 476.25 316.953C479.517 308.186 472.323 296.229 479.273 289.944C482.508 287.03 487.339 287.087 491.691 287.154C500.135 287.288 508.578 286.833 516.959 285.794C522.091 285.149 527.321 284.235 531.808 281.669C536.296 279.103 539.937 274.507 540.077 269.338C540.279 261.796 533.055 255.834 525.68 254.275C518.304 252.717 510.675 254.239 503.149 254.717C492.699 255.377 482.244 253.969 471.794 253.32C453.189 252.156 434.85 254.281 416.323 255.454C406.549 256.073 396.712 255.901 386.958 256.847C375.77 257.932 364.889 262.503 353.717 262.887Z" fill="#529CD5"/>
<path opacity="0.6" d="M353.717 262.887C345.594 263.168 337.756 260.238 329.825 258.42C321.894 256.602 312.987 256.052 306.214 260.545C302.724 262.867 299.95 267.271 301.509 271.162C302.366 273.291 304.329 274.798 306.365 275.836C319.801 282.848 335.84 275.27 350.944 273.992C356.568 273.514 364.089 275.784 363.876 281.43C363.705 285.965 358.537 288.339 354.205 289.689L339.714 294.208C332.672 296.4 324.382 300.01 323.499 307.339C322.648 314.413 329.571 320.007 336.287 322.402C338.977 323.363 342 324.256 343.475 326.713C345.594 330.276 343.064 334.878 339.875 337.522C336.686 340.166 332.682 342.036 330.501 345.557C327.244 350.824 329.426 358.101 333.892 362.392C338.359 366.682 344.519 368.624 350.512 370.219C379.832 377.948 411.124 379.677 440.464 372.021C448.255 369.98 457.131 365.986 458.643 358.044C459.894 351.401 455.282 344.539 456.986 338.026C459.427 328.635 472.864 326.048 476.25 316.953C479.517 308.186 472.323 296.229 479.273 289.944C482.508 287.03 487.339 287.087 491.691 287.154C500.135 287.288 508.578 286.833 516.959 285.794C522.091 285.149 527.321 284.235 531.808 281.669C536.296 279.103 539.937 274.507 540.077 269.338C540.279 261.796 533.055 255.834 525.68 254.275C518.304 252.717 510.675 254.239 503.149 254.717C492.699 255.377 482.244 253.969 471.794 253.32C453.189 252.156 434.85 254.281 416.323 255.454C406.549 256.073 396.712 255.901 386.958 256.847C375.77 257.932 364.889 262.503 353.717 262.887Z" fill="#9079A7"/>
<path opacity="0.6" d="M513.282 259.745C506.011 259.963 498.947 262.706 491.665 262.69C482.737 262.664 474.339 258.535 465.488 257.371C451.636 255.574 437.961 261.199 424.031 262.248C408.548 263.412 392.78 258.914 377.577 262.087C374.17 262.804 370.69 263.994 368.322 266.544C365.954 269.094 365.107 273.328 367.231 276.086C368.467 277.691 370.446 278.537 372.389 279.114C386.874 283.42 402.02 276.397 417.004 274.439C434.32 272.164 452.015 276.735 469.301 274.232C476.572 273.193 483.843 270.866 491.161 271.634C498.479 272.403 505.185 276.179 512.456 277.249C517.79 278.033 529.596 276.044 529.222 268.617C528.905 261.979 518.393 259.594 513.282 259.745Z" fill="#4C30FF"/>
<path opacity="0.6" d="M332.059 312.803C332.012 317.826 337.772 320.558 342.519 322.152C347.266 323.747 352.959 326.827 352.517 331.814C351.998 337.787 343.574 339.22 340.203 344.176C337.564 348.061 338.645 353.593 341.631 357.234C344.618 360.875 349.017 362.984 353.395 364.677C378.118 374.245 405.723 373.943 431.77 369.03C438.844 367.695 446.998 365.03 449.149 358.163C451.849 349.552 443.331 342.062 438.158 334.66C436.896 332.858 435.769 330.505 436.709 328.536C437.379 327.113 438.912 326.323 440.381 325.763C444.994 323.996 450.006 323.42 454.576 321.545C459.147 319.67 463.484 315.93 463.925 311.011C464.325 306.622 461.422 302.451 457.692 300.103C453.963 297.756 449.497 296.925 445.144 296.265C424.691 293.148 403.339 292.852 382.735 294.816C372.436 295.829 332.199 298.815 332.059 312.803Z" fill="#4C30FF"/>
<path opacity="0.6" d="M349.354 346.305C349.178 351.905 353.255 356.948 358.225 359.524C363.196 362.101 368.93 362.672 374.518 363.031C393.595 364.246 413.358 363.373 430.809 355.572C433.136 354.533 435.541 353.255 436.772 351.027C438.621 347.682 437.135 343.391 434.694 340.462C428.503 333.039 417.923 331.601 408.543 329.284C405.318 328.484 401.35 326.287 402.139 323.051L436.839 316.938C440.698 316.257 445.565 314.413 445.399 310.497C445.284 307.718 442.5 305.859 439.893 304.903C434.59 302.955 428.835 302.747 423.19 302.643C410.397 302.399 397.615 302.711 384.828 303.038C377.811 303.215 366.567 301.947 360.417 306.155C357.914 307.879 356.678 309.193 356.418 312.325C355.899 318.293 361.487 318.517 363.689 322.059C369.413 331.414 349.687 335.74 349.354 346.305Z" fill="#F48A4F"/>
<path opacity="0.8" d="M326.865 261.132C322.799 260.833 318.712 261.217 314.774 262.269C311.767 263.074 308.219 265.547 309.32 268.466C309.923 270.071 311.72 270.85 313.361 271.354C319.296 273.181 325.559 273.688 331.711 272.839C333.825 272.549 335.98 272.066 337.715 270.824C339.45 269.583 340.66 267.406 340.224 265.318C334.216 262.336 327.485 261.122 320.814 261.817" fill="#F48A4F"/>
<path opacity="0.6" d="M442.48 265.703C421.985 269.001 399.89 260.509 380.746 268.508L380.663 271.884C387.887 274.709 395.953 272.559 403.661 271.676C421.04 269.692 438.725 274.392 456.046 271.946C459.952 271.395 474.858 269.302 468.563 262.862C464.18 258.379 447.731 264.861 442.48 265.703Z" fill="#ED6931"/>
<path opacity="0.6" d="M520.595 263.755C518.587 263.085 516.466 262.822 514.356 262.98C512.245 263.137 510.187 263.713 508.301 264.674C507.465 265.11 506.592 265.713 506.379 266.627C505.928 268.585 508.509 269.686 510.462 270.138C512.622 270.658 514.793 271.338 517.001 271.177C519.208 271.016 521.535 269.702 522.039 267.541C522.543 265.38 520.2 262.867 518.195 263.827" fill="#ED6931"/>
<path opacity="0.8" d="M387.83 338.441C384.08 340.244 380.507 343.428 380.18 347.573C379.899 351.079 382.117 354.444 385.072 356.351C388.028 358.257 391.611 358.948 395.122 359.176C403.343 359.751 411.577 358.269 419.081 354.865C421.221 353.889 423.372 352.694 424.753 350.783C437.037 333.793 394.426 335.262 387.83 338.441Z" fill="#ED6931"/>
<path opacity="0.8" d="M385.405 309.12C380.223 308.346 374.929 309.152 370.213 311.432C368.577 312.231 366.79 313.748 367.289 315.494C374.451 318.143 383.125 320.075 389.196 315.447C390.157 314.714 391.076 313.639 390.868 312.45C390.661 311.26 389.534 310.621 388.474 310.175C385.375 308.872 381.979 308.439 378.653 308.923" fill="#ED6931"/>
<path opacity="0.6" d="M404.113 341.085C401.474 341.283 398.737 341.506 396.426 342.804C394.115 344.103 392.354 346.783 393.003 349.354C393.954 353.115 398.836 354.029 402.71 353.894C405.432 353.79 408.283 353.473 410.532 351.941C412.781 350.409 414.168 347.297 412.963 344.861C411.924 342.758 409.395 341.864 407.068 341.521C404.107 341.085 401.089 341.226 398.181 341.937" fill="#E6332A"/>
</g>
</g>
<defs>
<filter id="filter0_f_1_2640" x="-32" y="-49" width="668" height="643" filterUnits="userSpaceOnUse" color-interpolation-filters="sRGB">
<feFlood flood-opacity="0" result="BackgroundImageFix"/>
<feBlend mode="normal" in="SourceGraphic" in2="BackgroundImageFix" result="shape"/>
<feGaussianBlur stdDeviation="75" result="effect1_foregroundBlur_1_2640"/>
</filter>
<clipPath id="clip0_1_2640">
<rect width="526" height="364" fill="white" transform="translate(36 94)"/>
</clipPath>
</defs>
</svg>
